<svg viewBox="0 0 184 281" fill="none" xmlns="http://www.w3.org/2000/svg">
<path d="M183.1 213.73L168.41 205.47V176.16C168.41 174.93 168.04 173.72 167.33 172.62L166.95 172.02L166.77 171.55L164.66 169.1V111.35H164.68L170.91 105.41V103.76L164.68 97.8202H162.83V87.1101H163.05L167.65 82.7202L163.05 78.3301H162.81V75.8502L164.04 74.6801L162.5 73.2102L158.58 49.8401L154.43 73.2001L152.88 74.6801L154.11 75.8502V78.3301H153.87L149.27 82.7202L153.87 87.1101H154.09V97.8202H152.24L146.01 103.76V105.41L152.24 111.35H152.26V169.23L152.14 169.1C152.14 169.1 149.4 155.72 142.69 150.52C139.62 148.14 137.65 146.93 136.4 146.3V125.41V124.69L136.28 124.81L139.54 121.7V120.67L135.65 116.95H135.03V114.97H135.27L138.79 111.61L136.14 109.08V107.85C136.14 107.85 136.24 103.15 131.75 99.1501C127.26 103.15 127.36 107.85 127.36 107.85V109.08L124.71 111.61L128.23 114.97H128.47V116.95H127.85L123.96 120.67V121.7L127.27 124.86L127.1 124.7V125.42V138.6C126.4 138.04 125.64 137.47 124.85 136.89C124.82 136.87 124.81 136.85 124.81 136.85V136.86C123.54 135.95 122.17 135.03 120.68 134.15C117.76 124.69 111.67 114.78 98.0597 112.47V75.4202H98.0796L104.31 69.4801V67.8302L98.0796 61.8902H96.2296V51.1801H96.4496L101.05 46.7901L96.4496 42.4001H96.2096V39.9202L97.4396 38.7502L95.8997 37.2802L91.9796 13.9102L87.8296 37.2702L86.2797 38.7502L87.5096 39.9202V42.4001H87.2697L82.6697 46.7901L87.2697 51.1801H87.4896V61.8902H85.6396L79.4097 67.8302V69.4801L85.6396 75.4202H85.6597V112.47C71.9397 114.8 65.8596 124.88 62.9596 134.42C58.7296 137 55.3996 139.79 53.1296 141.94C52.7696 141.53 52.3797 141.12 51.9297 140.72C49.9097 142.52 48.8296 144.45 48.2396 146.04C47.0596 146.55 44.9696 147.74 41.3796 150.53C35.4796 155.1 32.6497 165.99 32.0497 168.56V110.89H32.0696L38.2997 104.95V103.3L32.0696 97.3601H30.2196V86.6501H30.4396L35.0397 82.2602L30.4396 77.8701H30.1996V75.3902L31.4297 74.2202L29.8896 72.7502L25.9696 49.3802L21.8196 72.7402L20.2697 74.2202L23.0596 76.8802L21.4996 75.3902V77.8701H21.2596L16.6596 82.2602L21.2596 86.6501H21.4796V97.3601H19.6296L13.3997 103.3V104.95L19.6296 110.89H19.6497V168.64L17.5396 171.09L16.8596 172.16C16.1496 173.27 15.7797 174.48 15.7797 175.7V205.34L0.849609 213.74V229L23.1796 241.57V245.75C23.1796 255.11 39.2096 266.06 58.9896 266.06C61.3496 266.06 63.6597 265.89 65.8997 265.6L92.0197 280.3L103.22 274H130.99V268.95L134.46 270.69L160.59 255.99V251.49H163.64V240.01L183.18 229.01V213.73H183.1Z" fill="currentColor"/>
<path d="M91.9395 265.03V280.28" stroke="#D1D3D4" stroke-width="0.5" stroke-miterlimit="10" stroke-linejoin="bevel"/>
<path d="M103.139 258.72V273.98" stroke="#D1D3D4" stroke-width="0.5" stroke-miterlimit="10" stroke-linejoin="bevel"/>
<path d="M23.1094 226.3V241.56" stroke="#D1D3D4" stroke-width="0.5" stroke-miterlimit="10" stroke-linejoin="bevel"/>
<path d="M26.2197 41.1102C25.9297 41.8602 25.3098 41.5202 24.9398 41.0802C24.6398 40.7202 24.5098 40.2802 24.5098 40.2802C24.7798 41.4102 25.3997 42.2202 25.9697 42.1402C26.6597 42.0402 27.1598 40.7902 27.0098 39.2802C26.8598 37.7702 26.1097 36.9802 25.4197 36.6802C25.4297 36.6902 27.2897 38.3102 26.2197 41.1102Z" stroke="#D1D3D4" stroke-width="0.5" stroke-miterlimit="10" stroke-linejoin="bevel"/>
<path d="M25.9102 49.3601V42.1401" stroke="#D1D3D4" stroke-width="0.5" stroke-miterlimit="10" stroke-linejoin="bevel"/>
<path d="M92.249 78.5799C91.959 79.3299 91.339 78.9899 90.969 78.5499C90.669 78.1899 90.5391 77.7499 90.5391 77.7499C90.8091 78.8799 91.429 79.6899 91.999 79.6099C92.689 79.5099 93.1891 78.2599 93.0391 76.7499C92.8891 75.2399 92.139 74.4499 91.449 74.1499C91.469 74.1599 93.319 75.7799 92.249 78.5799Z" stroke="#D1D3D4" stroke-width="0.5" stroke-miterlimit="10" stroke-linejoin="bevel"/>
<path d="M91.9395 86.8301V79.6201" stroke="#D1D3D4" stroke-width="0.5" stroke-miterlimit="10" stroke-linejoin="bevel"/>
<path d="M92.249 5.63995C91.959 6.38995 91.339 6.04995 90.969 5.60995C90.669 5.24995 90.5391 4.80995 90.5391 4.80995C90.8091 5.93995 91.429 6.74995 91.999 6.66995C92.689 6.56995 93.1891 5.31995 93.0391 3.80995C92.8891 2.29995 92.139 1.50996 91.449 1.20996C91.469 1.20996 93.319 2.83995 92.249 5.63995Z" stroke="#D1D3D4" stroke-width="0.5" stroke-miterlimit="10" stroke-linejoin="bevel"/>
<path d="M91.9492 13.8899V6.66992" stroke="#D1D3D4" stroke-width="0.5" stroke-miterlimit="10" stroke-linejoin="bevel"/>
<path d="M158.89 41.89C158.6 42.64 157.98 42.3 157.61 41.86C157.31 41.5 157.18 41.06 157.18 41.06C157.45 42.19 158.07 43 158.64 42.92C159.33 42.82 159.83 41.57 159.68 40.06C159.53 38.55 158.78 37.76 158.09 37.46C158.11 37.47 159.96 39.09 158.89 41.89Z" stroke="#D1D3D4" stroke-width="0.5" stroke-miterlimit="10" stroke-linejoin="bevel"/>
<path d="M158.58 50.1399V42.9199" stroke="#D1D3D4" stroke-width="0.5" stroke-miterlimit="10" stroke-linejoin="bevel"/>
<path d="M131.819 93.22C131.589 93.82 131.089 93.55 130.799 93.2C130.559 92.91 130.459 92.56 130.459 92.56C130.669 93.46 131.159 94.1 131.619 94.04C132.169 93.96 132.569 92.97 132.449 91.77C132.329 90.57 131.739 89.94 131.189 89.71C131.189 89.7 132.669 91 131.819 93.22Z" stroke="#D1D3D4" stroke-width="0.5" stroke-miterlimit="10" stroke-linejoin="bevel"/>
<path d="M131.568 99.78V94.04" stroke="#D1D3D4" stroke-width="0.5" stroke-miterlimit="10" stroke-linejoin="bevel"/>
<path d="M52.2291 134.96C51.9991 135.56 51.4991 135.29 51.2091 134.94C50.9691 134.65 50.8691 134.3 50.8691 134.3C51.0791 135.2 51.5692 135.84 52.0292 135.78C52.5792 135.7 52.9791 134.71 52.8591 133.51C52.7391 132.31 52.1491 131.68 51.5991 131.45C51.5991 131.44 53.0791 132.73 52.2291 134.96Z" stroke="#D1D3D4" stroke-width="0.5" stroke-miterlimit="10" stroke-linejoin="bevel"/>
<path d="M51.9785 141.52V135.78" stroke="#D1D3D4" stroke-width="0.5" stroke-miterlimit="10" stroke-linejoin="bevel"/>
<path d="M103.139 258.72L130.909 273.98H103.139L91.9392 280.28L65.8192 265.58C63.5792 265.87 61.2793 266.04 58.9193 266.04C39.1393 266.04 23.1093 255.09 23.1093 245.73V241.55L0.779297 228.98V213.72L23.1093 226.29V230.47C23.1093 239.83 39.1393 250.78 58.9193 250.78C61.2793 250.78 63.5892 250.61 65.8192 250.32L91.9392 265.02L103.139 258.72Z" stroke="#D1D3D4" stroke-width="0.5" stroke-miterlimit="10" stroke-linejoin="round"/>
<path d="M163.55 239.99L183.1 228.99V213.73L160.5 226.45" stroke="#D1D3D4" stroke-width="0.5" stroke-miterlimit="10" stroke-linejoin="round"/>
<path d="M168.41 205.47L183.1 213.73L163.55 224.73V251.47H160.5" stroke="#D1D3D4" stroke-width="0.5" stroke-miterlimit="10" stroke-linejoin="round"/>
<path d="M15.4595 205.47L0.769531 213.74L23.0995 226.31V230.49C23.0995 239.85 39.1295 250.8 58.9095 250.8C61.2695 250.8 63.5796 250.63 65.8096 250.34L91.9296 265.04L103.13 258.74L130.9 274V268.95" stroke="#D1D3D4" stroke-width="0.5" stroke-miterlimit="10" stroke-linejoin="round"/>
<path d="M47.2189 186.32L44.0789 189.88V223.87L32.3289 217.26C32.3289 217.26 31.8789 182.68 32.3289 179.16C32.7789 175.67 36.1389 167.37 45.6989 164.84" stroke="#D1D3D4" stroke-width="0.5" stroke-miterlimit="10" stroke-linejoin="round"/>
<path d="M45.4104 188.51V183.21C45.4104 180.54 44.9404 177.93 44.0504 175.73L42.7804 172.56L41.5104 175.73C40.6304 177.93 40.1504 180.54 40.1504 183.21V216.2L44.0903 218.44" stroke="#D1D3D4" stroke-width="0.5" stroke-miterlimit="10" stroke-linejoin="bevel"/>
<path d="M151.679 198.14C151.679 188.73 151.679 179.03 151.679 177.28C151.679 169.59 141.979 163.47 132.919 161.36C130.899 165.84 132.919 184.88 132.919 184.88L133.659 186C135.389 188.64 136.309 191.72 136.309 194.87V204.9" stroke="#D1D3D4" stroke-width="0.5" stroke-miterlimit="10" stroke-linejoin="round"/>
<path d="M47.2198 186.32L45.2899 188.51L44.0898 189.87L53.8699 195.71C54.3699 193.91 58.0099 182.82 71.7599 179.09" stroke="#D1D3D4" stroke-width="0.5" stroke-miterlimit="10" stroke-linejoin="round"/>
<path d="M32 169.28L34.64 173.1C36.65 169.78 40.11 166.32 45.71 164.84" stroke="#D1D3D4" stroke-width="0.5" stroke-miterlimit="10" stroke-linejoin="round"/>
<path d="M48.1805 146.04C47.0005 146.56 44.9004 147.76 41.3204 150.53C35.3904 155.13 32.5605 166.1 31.9805 168.6" stroke="#D1D3D4" stroke-width="0.5" stroke-miterlimit="10" stroke-linejoin="round"/>
<path d="M62.9001 134.4C58.6701 136.97 55.3501 139.76 53.0801 141.92" stroke="#D1D3D4" stroke-width="0.5" stroke-miterlimit="10" stroke-linejoin="round"/>
<path d="M136.06 192.12C135.68 189.95 134.88 187.87 133.66 186.01L132.92 184.89C132.92 184.89 130.9 165.85 132.92 161.37C139.79 162.96 147.01 166.87 150.11 172.01L152.12 169.1C152.12 169.1 149.38 155.72 142.67 150.52C135.96 145.32 134.45 145.65 134.45 145.65C134.45 145.65 129.45 139.37 120.65 134.13" stroke="#D1D3D4" stroke-width="0.5" stroke-miterlimit="10" stroke-linejoin="round"/>
<path d="M88 206.61H92H95.99L98.08 204.01L98.11 198.39C98.67 187.88 111.64 179.09 111.64 179.09C126.65 183.15 129.53 195.7 129.53 195.71" stroke="#D1D3D4" stroke-width="0.5" stroke-miterlimit="10" stroke-linejoin="round"/>
<path d="M87.4393 61.8701H85.5894L79.3594 67.8201L85.5894 73.7601H98.0394L104.269 67.8201L98.0394 61.8701H96.1893" stroke="#D1D3D4" stroke-width="0.5" stroke-miterlimit="10" stroke-linejoin="round"/>
<path d="M87.4395 51.1602V68.3802L89.6295 70.4602H93.9995L96.1895 68.3802V51.1602H87.4395Z" stroke="#D1D3D4" stroke-width="0.5" stroke-miterlimit="10" stroke-linejoin="round"/>
<path d="M85.5996 112.45V75.4102H87.8196V109.24" stroke="#D1D3D4" stroke-width="0.5" stroke-miterlimit="10" stroke-linejoin="round"/>
<path d="M95.8086 108.25V75.4102H98.0186V112.45" stroke="#D1D3D4" stroke-width="0.5" stroke-miterlimit="10" stroke-linejoin="round"/>
<path d="M87.4395 68.3802V51.1602H89.6295V70.4602L87.4395 68.3802Z" stroke="#D1D3D4" stroke-width="0.5" stroke-miterlimit="10" stroke-linejoin="round"/>
<path d="M94 70.4602V51.1602H96.1899V68.3802L94 70.4602Z" stroke="#D1D3D4" stroke-width="0.5" stroke-miterlimit="10" stroke-linejoin="round"/>
<path d="M104.269 67.8203L98.0194 73.7603H85.5994L79.3594 67.8203V69.4603L85.5894 75.4103H98.0394L104.269 69.4603V67.8203Z" stroke="#D1D3D4" stroke-width="0.5" stroke-miterlimit="10" stroke-linejoin="round"/>
<path d="M87.4591 42.3804H87.2191L82.6191 46.7704L87.2191 51.1604H96.4092L101.009 46.7704L96.4092 42.3804H96.1692" stroke="#D1D3D4" stroke-width="0.5" stroke-miterlimit="10" stroke-linejoin="round"/>
<path d="M87.7786 37.25L86.2285 38.73L89.0186 41.39H94.5985L97.3885 38.73L95.8585 37.26" stroke="#D1D3D4" stroke-width="0.5" stroke-miterlimit="10" stroke-linejoin="round"/>
<path d="M89.7285 40.0501L91.9385 13.8901L93.8986 40.0501H89.7285Z" stroke="#D1D3D4" stroke-width="0.5" stroke-miterlimit="10" stroke-linejoin="round"/>
<path d="M87.6387 38.0601L91.9386 13.8901L89.7286 40.0501L87.6387 38.0601Z" stroke="#D1D3D4" stroke-width="0.5" stroke-miterlimit="10" stroke-linejoin="round"/>
<path d="M95.9895 38.0601L93.8995 40.0501L91.9395 13.8901L95.9895 38.0601Z" stroke="#D1D3D4" stroke-width="0.5" stroke-miterlimit="10" stroke-linejoin="round"/>
<path d="M89.639 47.7099V41.3899H89.019L87.459 39.8999V45.6299L89.639 47.7099Z" stroke="#D1D3D4" stroke-width="0.5" stroke-miterlimit="10" stroke-linejoin="round"/>
<path d="M93.9902 47.7099V41.3899H94.6002L96.1703 39.8999V45.6299L93.9902 47.7099Z" stroke="#D1D3D4" stroke-width="0.5" stroke-miterlimit="10" stroke-linejoin="round"/>
<path d="M93.9886 41.3901H89.6387V47.7001H93.9886V41.3901Z" stroke="#D1D3D4" stroke-width="0.5" stroke-miterlimit="10" stroke-linejoin="round"/>
<path d="M127.07 138.63V124.69L127.83 125.42H128.73V139.91" stroke="#D1D3D4" stroke-width="0.5" stroke-miterlimit="10" stroke-linejoin="round"/>
<path d="M134.719 145.66V125.42H135.619L136.379 124.69V146.31" stroke="#D1D3D4" stroke-width="0.5" stroke-miterlimit="10" stroke-linejoin="round"/>
<path d="M128.449 120.98V114.97H130.089V122.55L128.449 120.98Z" stroke="#D1D3D4" stroke-width="0.5" stroke-miterlimit="10" stroke-linejoin="round"/>
<path d="M133.369 122.55V114.97H135.009V120.98L133.369 122.55Z" stroke="#D1D3D4" stroke-width="0.5" stroke-miterlimit="10" stroke-linejoin="round"/>
<path d="M128.439 116.95H127.829L123.939 120.67L127.829 124.39H135.62L139.52 120.67L135.62 116.95H135.01" stroke="#D1D3D4" stroke-width="0.5" stroke-miterlimit="10" stroke-linejoin="round"/>
<path d="M139.52 120.67L135.609 124.39H127.839L123.939 120.67V121.7L127.829 125.42H135.62L139.52 121.7V120.67Z" stroke="#D1D3D4" stroke-width="0.5" stroke-miterlimit="10" stroke-linejoin="round"/>
<path d="M128.449 114.97V120.98L130.089 122.55H133.369L135.009 120.98V114.97H128.449Z" stroke="#D1D3D4" stroke-width="0.5" stroke-miterlimit="10" stroke-linejoin="round"/>
<path d="M127.339 109.08L124.689 111.61L128.209 114.97H135.24L138.76 111.61L136.12 109.08" stroke="#D1D3D4" stroke-width="0.5" stroke-miterlimit="10" stroke-linejoin="round"/>
<path d="M129.53 113.32V109.95L127.34 107.85V111.23L129.53 113.32Z" stroke="#D1D3D4" stroke-width="0.5" stroke-miterlimit="10" stroke-linejoin="round"/>
<path d="M133.919 109.95H129.529V113.32H133.919V109.95Z" stroke="#D1D3D4" stroke-width="0.5" stroke-miterlimit="10" stroke-linejoin="round"/>
<path d="M127.34 107.85C127.34 107.85 127.24 103.15 131.73 99.1499C131.73 99.1499 129.54 105.57 129.54 109.94L127.34 107.85Z" stroke="#D1D3D4" stroke-width="0.5" stroke-miterlimit="10" stroke-linejoin="round"/>
<path d="M136.12 107.85C136.12 107.85 136.22 103.15 131.73 99.1499C131.73 99.1499 133.921 105.57 133.921 109.94L136.12 107.85Z" stroke="#D1D3D4" stroke-width="0.5" stroke-miterlimit="10" stroke-linejoin="round"/>
<path d="M133.92 113.32V109.95L136.12 107.85V111.23L133.92 113.32Z" stroke="#D1D3D4" stroke-width="0.5" stroke-miterlimit="10" stroke-linejoin="round"/>
<path d="M129.529 109.95C129.529 109.95 129.529 105.29 131.719 99.1602C133.659 104.09 133.909 109.95 133.909 109.95H129.529Z" stroke="#D1D3D4" stroke-width="0.5" stroke-miterlimit="10" stroke-linejoin="round"/>
<path d="M44.0898 233.16L53.8699 238.67V195.71L44.0898 189.87V233.16Z" stroke="#D1D3D4" stroke-width="0.5" stroke-miterlimit="10" stroke-linejoin="round"/>
<path d="M136.299 205.29V183.2C136.299 180.53 136.769 177.92 137.659 175.72L138.929 172.55L140.199 175.72C141.079 177.92 141.559 180.53 141.559 183.2V214.17" stroke="#D1D3D4" stroke-width="0.5" stroke-miterlimit="10" stroke-linejoin="bevel"/>
<path d="M98.0703 158.98L100.3 159.76L103.98 157.33L107.66 149.21L111.33 152.8L115.01 153.35L117.13 150.24L119.25 142.76L121.37 144.02L123.43 147.23L123.19 146.84" stroke="#D1D3D4" stroke-width="0.5" stroke-miterlimit="10" stroke-linejoin="round"/>
<path d="M87.4995 112.18C65.4895 114.65 61.7595 136.06 60.4395 146.87L62.2695 146.99L64.3895 142.76L66.5095 150.24L68.6295 153.35L72.3096 152.8L75.9795 149.21L79.6595 157.33L83.3395 159.76L85.6696 158.94" stroke="#D1D3D4" stroke-width="0.5" stroke-miterlimit="10" stroke-linejoin="round"/>
<path d="M122.44 141.71C120.45 130.38 115.06 114.35 96.2305 112.19" stroke="#D1D3D4" stroke-width="0.5" stroke-miterlimit="10" stroke-linejoin="round"/>
<path d="M85.6704 158.72C85.0504 159.08 84.3903 159.39 83.7003 159.63L83.3303 159.76L82.3704 159.12C80.6004 157.95 79.1903 156.3 78.3203 154.37L75.9803 149.21L74.9104 150.26C73.2204 151.91 71.0503 152.99 68.7103 153.34L68.6304 153.35L67.5404 151.75C66.8604 150.75 66.3404 149.65 66.0104 148.48L64.3904 142.76L63.3303 144.88L60.1504 139.35V151.04C60.1504 159.32 74.3303 169.01 91.8203 169.01C109.31 169.01 123.49 159.32 123.49 151.04V139.35L121.37 144.02L119.25 142.76L117.63 148.48C117.3 149.64 116.78 150.75 116.1 151.75L115.01 153.35L114.93 153.34C112.59 152.99 110.42 151.91 108.73 150.26L107.66 149.21L105.32 154.37C104.44 156.3 103.04 157.95 101.27 159.12L100.31 159.76L99.9403 159.63C99.3103 159.41 98.7104 159.14 98.1404 158.82" stroke="#D1D3D4" stroke-width="0.5" stroke-miterlimit="10" stroke-linejoin="round"/>
<path d="M21.4098 97.3506H19.5598L13.3398 103.291L19.5598 109.241H32.0098L38.2398 103.291L32.0098 97.3506H30.1599" stroke="#D1D3D4" stroke-width="0.5" stroke-miterlimit="10" stroke-linejoin="round"/>
<path d="M38.2398 103.291L31.9998 109.241H19.5798L13.3398 103.291V104.941L19.5598 110.881H32.0098L38.2398 104.941V103.291Z" stroke="#D1D3D4" stroke-width="0.5" stroke-miterlimit="10" stroke-linejoin="round"/>
<path d="M19.5801 171.08V110.88H21.79V172.4L19.5801 171.08Z" stroke="#D1D3D4" stroke-width="0.5" stroke-miterlimit="10" stroke-linejoin="round"/>
<path d="M29.7793 172.4V110.88H31.9993V171.08L29.7793 172.4Z" stroke="#D1D3D4" stroke-width="0.5" stroke-miterlimit="10" stroke-linejoin="round"/>
<path d="M21.4102 86.6304V103.85L23.6002 105.94H27.9702L30.1602 103.85V86.6304H21.4102Z" stroke="#D1D3D4" stroke-width="0.5" stroke-miterlimit="10" stroke-linejoin="round"/>
<path d="M21.4102 103.85V86.6304H23.6002V105.94L21.4102 103.85Z" stroke="#D1D3D4" stroke-width="0.5" stroke-miterlimit="10" stroke-linejoin="round"/>
<path d="M27.9707 105.94V86.6304H30.1608V103.85L27.9707 105.94Z" stroke="#D1D3D4" stroke-width="0.5" stroke-miterlimit="10" stroke-linejoin="round"/>
<path d="M21.1898 77.8506L16.5898 82.2406L21.1898 86.6306H30.3898L34.9798 82.2406L30.3898 77.8506" stroke="#D1D3D4" stroke-width="0.5" stroke-miterlimit="10" stroke-linejoin="round"/>
<path d="M21.4298 77.8506H21.1898L16.5898 82.2406L21.1898 86.6306H30.3898L34.9798 82.2406L30.3898 77.8506H30.1398" stroke="#D1D3D4" stroke-width="0.5" stroke-miterlimit="10" stroke-linejoin="round"/>
<path d="M21.749 72.7305L20.209 74.2005L22.999 76.8705H28.5789L31.369 74.2005L29.8289 72.7305" stroke="#D1D3D4" stroke-width="0.5" stroke-miterlimit="10" stroke-linejoin="round"/>
<path d="M23.6992 75.5303L25.9092 49.3604L27.8792 75.5303H23.6992Z" stroke="#D1D3D4" stroke-width="0.5" stroke-miterlimit="10" stroke-linejoin="round"/>
<path d="M21.6094 73.5303L25.9094 49.3604L23.6994 75.5303L21.6094 73.5303Z" stroke="#D1D3D4" stroke-width="0.5" stroke-miterlimit="10" stroke-linejoin="round"/>
<path d="M29.9601 73.5303L27.8802 75.5303L25.9102 49.3604L29.9601 73.5303Z" stroke="#D1D3D4" stroke-width="0.5" stroke-miterlimit="10" stroke-linejoin="round"/>
<path d="M23.6097 83.1801V76.8701H22.9997L21.4297 75.3701V81.1001L23.6097 83.1801Z" stroke="#D1D3D4" stroke-width="0.5" stroke-miterlimit="10" stroke-linejoin="round"/>
<path d="M27.959 83.1801V76.8701H28.579L30.139 75.3701V81.1001L27.959 83.1801Z" stroke="#D1D3D4" stroke-width="0.5" stroke-miterlimit="10" stroke-linejoin="round"/>
<path d="M27.9594 76.8701H23.6094V83.1801H27.9594V76.8701Z" stroke="#D1D3D4" stroke-width="0.5" stroke-miterlimit="10" stroke-linejoin="round"/>
<path d="M154.08 97.8203H152.23L146 103.76L152.23 109.71H164.68L170.9 103.76L164.68 97.8203H162.83" stroke="#D1D3D4" stroke-width="0.5" stroke-miterlimit="10" stroke-linejoin="round"/>
<path d="M154.08 87.1099V104.32L156.27 106.41H160.64L162.83 104.32V87.1099H154.08Z" stroke="#D1D3D4" stroke-width="0.5" stroke-miterlimit="10" stroke-linejoin="round"/>
<path d="M152.24 169.24V111.36H154.46V171.55" stroke="#D1D3D4" stroke-width="0.5" stroke-miterlimit="10" stroke-linejoin="round"/>
<path d="M162.449 171.55V111.36H164.659V169.1" stroke="#D1D3D4" stroke-width="0.5" stroke-miterlimit="10" stroke-linejoin="round"/>
<path d="M154.08 104.32V97.8199V87.1099H156.27V106.41L154.08 104.32Z" stroke="#D1D3D4" stroke-width="0.5" stroke-miterlimit="10" stroke-linejoin="round"/>
<path d="M160.641 106.41V87.1099H162.831V97.8199V104.32L160.641 106.41Z" stroke="#D1D3D4" stroke-width="0.5" stroke-miterlimit="10" stroke-linejoin="round"/>
<path d="M170.9 103.76L164.66 109.71H152.24L146 103.76V105.41L152.23 111.36H164.68L170.9 105.41V103.76Z" stroke="#D1D3D4" stroke-width="0.5" stroke-miterlimit="10" stroke-linejoin="round"/>
<path d="M154.08 78.3301H153.85L149.26 82.7201L153.85 87.1101H163.05L167.65 82.7201L163.05 78.3301H162.81" stroke="#D1D3D4" stroke-width="0.5" stroke-miterlimit="10" stroke-linejoin="round"/>
<path d="M154.419 73.2002L152.869 74.6802L155.659 77.3402H161.239L164.029 74.6802L162.499 73.2102" stroke="#D1D3D4" stroke-width="0.5" stroke-miterlimit="10" stroke-linejoin="round"/>
<path d="M156.359 76.0001L158.569 49.8301L160.539 76.0001H156.359Z" stroke="#D1D3D4" stroke-width="0.5" stroke-miterlimit="10" stroke-linejoin="round"/>
<path d="M154.279 74.0101L158.569 49.8301L156.359 76.0001L154.279 74.0101Z" stroke="#D1D3D4" stroke-width="0.5" stroke-miterlimit="10" stroke-linejoin="round"/>
<path d="M162.63 74.0101L160.54 76.0001L158.57 49.8301L162.63 74.0101Z" stroke="#D1D3D4" stroke-width="0.5" stroke-miterlimit="10" stroke-linejoin="round"/>
<path d="M156.28 83.6501V77.3401H155.66L154.1 75.8501V81.5801L156.28 83.6501Z" stroke="#D1D3D4" stroke-width="0.5" stroke-miterlimit="10" stroke-linejoin="round"/>
<path d="M160.631 83.6501V77.3401H161.241L162.811 75.8501V81.5801L160.631 83.6501Z" stroke="#D1D3D4" stroke-width="0.5" stroke-miterlimit="10" stroke-linejoin="round"/>
<path d="M160.629 77.3398H156.279V83.6498H160.629V77.3398Z" stroke="#D1D3D4" stroke-width="0.5" stroke-miterlimit="10" stroke-linejoin="round"/>
<path d="M168.409 214.98L164.879 217.73V176.16C164.879 174.93 165.249 173.72 165.959 172.62L166.639 171.55L167.319 172.62C168.029 173.73 168.399 174.94 168.399 176.16V214.98H168.409Z" stroke="#D1D3D4" stroke-width="0.5" stroke-miterlimit="10" stroke-linejoin="round"/>
<path d="M151.779 198.14V179.63C151.779 177.62 152.769 175.67 154.579 174.16L155.059 173.76L155.539 174.16C157.339 175.67 158.339 177.62 158.339 179.63V197.88" stroke="#D1D3D4" stroke-width="0.5" stroke-miterlimit="10" stroke-linejoin="round"/>
<path d="M158.33 179.63C158.33 177.62 159.32 175.67 161.13 174.16L161.61 173.76L162.09 174.16C163.89 175.67 164.89 177.62 164.89 179.63V217.73L160.51 218.67" stroke="#D1D3D4" stroke-width="0.5" stroke-miterlimit="10" stroke-linejoin="round"/>
<path d="M150.7 172.62C151.41 173.73 151.78 174.94 151.78 176.16V177.37L152.2 177.51C152.64 176.28 153.42 175.13 154.58 174.16L155.06 173.76L155.54 174.16C157.34 175.67 158.33 177.6 158.33 179.61H158.34C158.35 177.6 159.34 175.67 161.14 174.16L161.62 173.76L162.1 174.16C163.27 175.14 164.05 176.3 164.49 177.55L164.9 177.41V176.16C164.9 174.93 165.27 173.72 165.98 172.62L166.66 171.55L166.96 172.02L166.78 171.55L164.67 169.1L162.45 171.55H158.39H154.34L152.12 169.1L150.01 171.55L150.7 172.62Z" stroke="#D1D3D4" stroke-width="0.5" stroke-miterlimit="10" stroke-linejoin="round"/>
<path d="M19.2292 217.261L15.6992 214.511V175.691C15.6992 174.461 16.0692 173.251 16.7792 172.151L17.4592 171.081L18.1392 172.151C18.8492 173.261 19.2192 174.471 19.2192 175.691V217.261H19.2292Z" stroke="#D1D3D4" stroke-width="0.5" stroke-miterlimit="10" stroke-linejoin="round"/>
<path d="M25.7883 218.661L19.2383 217.261V179.161C19.2383 177.151 20.2283 175.201 22.0383 173.691L22.5183 173.291L22.9983 173.691C24.7983 175.201 25.7983 177.151 25.7983 179.161V218.661H25.7883Z" stroke="#D1D3D4" stroke-width="0.5" stroke-miterlimit="10" stroke-linejoin="round"/>
<path d="M32.3391 217.261L25.7891 218.661V179.161C25.7891 177.151 26.7791 175.201 28.5891 173.691L29.069 173.291L29.5491 173.691C31.3491 175.201 32.3491 177.151 32.3491 179.161V217.261H32.3391Z" stroke="#D1D3D4" stroke-width="0.5" stroke-miterlimit="10" stroke-linejoin="round"/>
<path d="M18.1488 172.14C18.8588 173.25 19.2288 174.46 19.2288 175.68V176.89L19.6488 177.03C20.0888 175.8 20.8688 174.65 22.0288 173.68L22.5088 173.28L22.9888 173.68C24.7888 175.19 25.7788 177.12 25.7788 179.13H25.7888C25.7988 177.12 26.7887 175.19 28.5787 173.68L29.0588 173.28L29.5388 173.68C30.7088 174.66 31.4888 175.82 31.9288 177.07L32.2688 178.59C32.2688 178.59 32.6788 177.56 33.2288 175.9C33.7788 174.24 35.0787 172.39 35.0787 172.39L34.2188 171.06L32.1088 168.61L31.9888 171.06L29.8988 172.39H25.8388H21.7888L19.5788 171.06V168.61L17.4688 171.06L18.1488 172.14Z" stroke="#D1D3D4" stroke-width="0.5" stroke-miterlimit="10" stroke-linejoin="round"/>
<path d="M81.799 245.08L71.7689 239.43L53.8789 238.66V195.7C53.8789 195.7 56.7489 183.15 71.7689 179.08C71.7689 179.08 85.3289 188.26 85.3289 199.07V203.23" stroke="#D1D3D4" stroke-width="0.5" stroke-miterlimit="10" stroke-linejoin="round"/>
<path d="M129.529 225.74V196.78C129.529 194.82 129.889 192.88 130.579 191.05L132.909 184.89L133.639 186.01C135.369 188.65 136.289 191.73 136.289 194.88V204.91" stroke="#D1D3D4" stroke-width="0.5" stroke-miterlimit="10" stroke-linejoin="round"/>
<path d="M134.93 204.57V194.88C134.93 192.46 134.34 190.1 133.22 187.98L131.87 191.54C131.23 193.22 130.91 194.98 130.91 196.78V224.25" stroke="#D1D3D4" stroke-width="0.5" stroke-miterlimit="10" stroke-linejoin="bevel"/>
<path d="M111.648 176.64H111.678C123.108 172.65 131.228 165.66 132.888 158.94L124.058 164.1L111.648 176.64Z" stroke="#D1D3D4" stroke-width="0.5" stroke-miterlimit="10" stroke-linejoin="round"/>
<path d="M98.0898 179.63C102.93 179.14 107.5 178.09 111.64 176.65L111.66 176.64L98.0999 173.95" stroke="#D1D3D4" stroke-width="0.5" stroke-miterlimit="10" stroke-linejoin="round"/>
<path d="M85.6685 173.92L71.8984 176.62C76.0984 178.09 80.7385 179.16 85.6685 179.65" stroke="#D1D3D4" stroke-width="0.5" stroke-miterlimit="10" stroke-linejoin="round"/>
<path d="M56.459 167.71C60.169 171.19 65.4091 174.3 71.6691 176.53L60.769 163.5L59.6791 163.23" stroke="#D1D3D4" stroke-width="0.5" stroke-miterlimit="10" stroke-linejoin="round"/>
<path d="M68.2894 192L66.1094 188.83L63.9294 192C62.4194 194.2 61.6094 196.81 61.6094 199.48V234.38L70.6194 234.76V199.48C70.6094 196.81 69.7994 194.2 68.2894 192Z" stroke="#D1D3D4" stroke-width="0.5" stroke-miterlimit="10" stroke-linejoin="bevel"/>
<path d="M80.439 195.95L79.1691 192.78L77.899 195.95C77.019 198.15 76.5391 200.76 76.5391 203.43V236.42L81.7991 239.4V203.42C81.7991 200.76 81.319 198.15 80.439 195.95Z" stroke="#D1D3D4" stroke-width="0.5" stroke-miterlimit="10" stroke-linejoin="bevel"/>
<path d="M113.26 225.74V199.48C113.26 196.81 114.07 194.2 115.58 192L117.76 188.83L119.94 192C121.45 194.2 122.26 196.81 122.26 199.48V225.74" stroke="#D1D3D4" stroke-width="0.5" stroke-miterlimit="10" stroke-linejoin="bevel"/>
<path d="M102.08 225.74V203.43C102.08 200.76 102.55 198.15 103.44 195.95L104.71 192.78L105.98 195.95C106.86 198.15 107.34 200.76 107.34 203.43V225.74" stroke="#D1D3D4" stroke-width="0.5" stroke-miterlimit="10" stroke-linejoin="bevel"/>
<path d="M85.6699 203.97V145.66H98.0898V204.01L95.8699 206.61H87.8799L85.6699 203.97Z" stroke="#D1D3D4" stroke-width="0.5" stroke-miterlimit="10" stroke-linejoin="round"/>
<path d="M87.4999 133.771H85.6499L79.4199 139.711L85.6499 145.661H98.0999L104.33 139.711L98.0999 133.771H96.2299" stroke="#D1D3D4" stroke-width="0.5" stroke-miterlimit="10" stroke-linejoin="round"/>
<path d="M87.5 123.06V140.27L89.6899 142.36H94.0601L96.25 140.27V123.06H87.5Z" stroke="#D1D3D4" stroke-width="0.5" stroke-miterlimit="10" stroke-linejoin="round"/>
<path d="M85.6699 203.97V147.3H87.8799V206.61L85.6699 203.97Z" stroke="#D1D3D4" stroke-width="0.5" stroke-miterlimit="10" stroke-linejoin="round"/>
<path d="M87.5 140.27V123.06H89.6899V142.36L87.5 140.27Z" stroke="#D1D3D4" stroke-width="0.5" stroke-miterlimit="10" stroke-linejoin="round"/>
<path d="M95.8691 206.61V147.3H98.0891V204.01L95.8691 206.61Z" stroke="#D1D3D4" stroke-width="0.5" stroke-miterlimit="10" stroke-linejoin="round"/>
<path d="M94.0605 142.36V123.06H96.2505V140.27L94.0605 142.36Z" stroke="#D1D3D4" stroke-width="0.5" stroke-miterlimit="10" stroke-linejoin="round"/>
<path d="M104.33 139.71L98.0898 145.66H85.6699L79.4199 139.71V141.36L85.6499 147.3H98.0999L104.33 141.36V139.71Z" stroke="#D1D3D4" stroke-width="0.5" stroke-miterlimit="10" stroke-linejoin="round"/>
<path d="M87.4996 114.271H87.2797L82.6797 118.661L87.2797 123.061H96.4696L101.07 118.661L96.4696 114.271H96.2296" stroke="#D1D3D4" stroke-width="0.5" stroke-miterlimit="10" stroke-linejoin="round"/>
<path d="M87.7908 109.2L86.3008 110.62L89.0907 113.29H94.6708L97.4607 110.62L95.9208 109.16" stroke="#D1D3D4" stroke-width="0.5" stroke-miterlimit="10" stroke-linejoin="round"/>
<path d="M89.7891 111.95L91.999 85.7803L93.959 111.95H89.7891Z" stroke="#D1D3D4" stroke-width="0.5" stroke-miterlimit="10" stroke-linejoin="round"/>
<path d="M87.6992 109.95L91.9993 85.7803L89.7893 111.95L87.6992 109.95Z" stroke="#D1D3D4" stroke-width="0.5" stroke-miterlimit="10" stroke-linejoin="round"/>
<path d="M96.05 109.95L93.96 111.95L92 85.7803L96.05 109.95Z" stroke="#D1D3D4" stroke-width="0.5" stroke-miterlimit="10" stroke-linejoin="round"/>
<path d="M89.6995 119.6V113.29H89.0895L87.5195 111.79V117.52L89.6995 119.6Z" stroke="#D1D3D4" stroke-width="0.5" stroke-miterlimit="10" stroke-linejoin="round"/>
<path d="M94.0508 119.6V113.29H94.6708L96.2307 111.79V117.52L94.0508 119.6Z" stroke="#D1D3D4" stroke-width="0.5" stroke-miterlimit="10" stroke-linejoin="round"/>
<path d="M94.0493 113.29H89.6992V119.6H94.0493V113.29Z" stroke="#D1D3D4" stroke-width="0.5" stroke-miterlimit="10" stroke-linejoin="round"/>
<path d="M48.5999 158.51H47.9799L44.0898 162.23L47.9799 165.95H55.7699L59.6699 162.23L55.7699 158.51H55.1599" stroke="#D1D3D4" stroke-width="0.5" stroke-miterlimit="10" stroke-linejoin="round"/>
<path d="M47.2207 188.78V166.25L47.9807 166.98H48.8807V189.85L47.2207 188.78Z" stroke="#D1D3D4" stroke-width="0.5" stroke-miterlimit="10" stroke-linejoin="round"/>
<path d="M54.8691 189.85V166.98H55.7692L56.5292 166.25V188.78L54.8691 189.85Z" stroke="#D1D3D4" stroke-width="0.5" stroke-miterlimit="10" stroke-linejoin="round"/>
<path d="M48.5996 156.53V162.55L50.2396 164.11H53.5197L55.1597 162.55V156.53H48.5996Z" stroke="#D1D3D4" stroke-width="0.5" stroke-miterlimit="10" stroke-linejoin="round"/>
<path d="M48.5996 162.55V156.53H50.2396V164.11L48.5996 162.55Z" stroke="#D1D3D4" stroke-width="0.5" stroke-miterlimit="10" stroke-linejoin="round"/>
<path d="M53.5195 164.11V156.53H55.1595V162.55L53.5195 164.11Z" stroke="#D1D3D4" stroke-width="0.5" stroke-miterlimit="10" stroke-linejoin="round"/>
<path d="M59.6699 162.23L55.7599 165.95H47.9899L44.0898 162.23V163.26L47.9799 166.98H55.7699L59.6699 163.26V162.23Z" stroke="#D1D3D4" stroke-width="0.5" stroke-miterlimit="10" stroke-linejoin="round"/>
<path d="M47.4899 150.65L44.8398 153.17L48.3599 156.53H55.3999L58.9099 153.17L56.2699 150.65" stroke="#D1D3D4" stroke-width="0.5" stroke-miterlimit="10" stroke-linejoin="round"/>
<path d="M49.6803 154.88V151.51L47.4902 149.42V152.79L49.6803 154.88Z" stroke="#D1D3D4" stroke-width="0.5" stroke-miterlimit="10" stroke-linejoin="round"/>
<path d="M54.0696 151.51H49.6797V154.88H54.0696V151.51Z" stroke="#D1D3D4" stroke-width="0.5" stroke-miterlimit="10" stroke-linejoin="round"/>
<path d="M47.4904 149.42C47.4904 149.42 47.3904 144.72 51.8804 140.72C51.8804 140.72 49.6904 147.14 49.6904 151.51L47.4904 149.42Z" stroke="#D1D3D4" stroke-width="0.5" stroke-miterlimit="10" stroke-linejoin="round"/>
<path d="M56.2689 149.42C56.2689 149.42 56.3689 144.72 51.8789 140.72C51.8789 140.72 54.0688 147.14 54.0688 151.51L56.2689 149.42Z" stroke="#D1D3D4" stroke-width="0.5" stroke-miterlimit="10" stroke-linejoin="round"/>
<path d="M54.0703 154.88V151.51L56.2704 149.42V152.79L54.0703 154.88Z" stroke="#D1D3D4" stroke-width="0.5" stroke-miterlimit="10" stroke-linejoin="round"/>
<path d="M49.6797 151.51C49.6797 151.51 49.6796 146.85 51.8696 140.72C53.8096 145.65 54.0597 151.51 54.0597 151.51H49.6797Z" stroke="#D1D3D4" stroke-width="0.5" stroke-miterlimit="10" stroke-linejoin="round"/>
<path d="M85.319 253.68L81.7891 250.93V209.9C81.7891 208.67 82.159 207.46 82.869 206.36L83.5491 205.29L84.229 206.36C84.939 207.47 85.3091 208.68 85.3091 209.9V253.68H85.319Z" stroke="#D1D3D4" stroke-width="0.5" stroke-miterlimit="10" stroke-linejoin="round"/>
<path d="M98.4297 253.68V209.9C98.4297 208.67 98.7996 207.46 99.5096 206.36L100.19 205.29L100.87 206.36C101.58 207.47 101.95 208.68 101.95 209.9V225.74" stroke="#D1D3D4" stroke-width="0.5" stroke-miterlimit="10" stroke-linejoin="round"/>
<path d="M91.8782 255.08L85.3281 253.68V213.37C85.3281 211.36 86.3182 209.41 88.1282 207.9L88.6082 207.5L89.0881 207.9C90.8881 209.41 91.8882 211.36 91.8882 213.37V255.08H91.8782Z" stroke="#D1D3D4" stroke-width="0.5" stroke-miterlimit="10" stroke-linejoin="round"/>
<path d="M98.429 253.68L91.8789 255.08V213.37C91.8789 211.36 92.869 209.41 94.679 207.9L95.1589 207.5L95.6389 207.9C97.4389 209.41 98.4388 211.36 98.4388 213.37V253.68H98.429Z" stroke="#D1D3D4" stroke-width="0.5" stroke-miterlimit="10" stroke-linejoin="round"/>
<path d="M84.239 206.35C84.949 207.46 85.319 208.67 85.319 209.89V211.1L85.739 211.24C86.179 210.01 86.959 208.86 88.119 207.89L88.599 207.49L89.079 207.89C90.879 209.4 91.869 211.33 91.869 213.34H91.879C91.889 211.33 92.8791 209.4 94.6691 207.89L95.149 207.49L95.629 207.89C96.799 208.87 97.579 210.03 98.019 211.28L98.4291 211.14V209.89C98.4291 208.66 98.799 207.45 99.509 206.35L100.189 205.28L100.489 205.75L100.309 205.28L98.199 202.83V203.96L95.979 206.6H91.9191H87.869L85.649 203.96V202.83L83.5391 205.28L84.239 206.35Z" stroke="#D1D3D4" stroke-width="0.5" stroke-miterlimit="10" stroke-linejoin="round"/>
<path d="M98.4297 253.68H103.14L130.91 268.93V225.74" stroke="#D1D3D4" stroke-width="0.5" stroke-miterlimit="10" stroke-linejoin="round"/>
<path d="M130.91 225.74H101.13L98.4297 227.58H130.91V225.74Z" stroke="#D1D3D4" stroke-width="0.5" stroke-miterlimit="10" stroke-linejoin="round"/>
<path d="M139.019 268.06L134.369 270.68V221.91L160.499 207.21V255.97L155.879 258.58" stroke="#D1D3D4" stroke-width="0.5" stroke-miterlimit="10" stroke-linejoin="round"/>
<path d="M155.87 258.55L146.99 254.16L139.01 258.65V268.03V251.4C139.01 242.58 141.94 234.01 147.34 227.03L147.43 226.91C152.29 227.72 155.86 231.92 155.86 236.85V258.55H155.87Z" stroke="#D1D3D4" stroke-width="0.5" stroke-miterlimit="10" stroke-linejoin="round"/>
<path d="M130.91 268.93L134.37 270.68V221.91L130.91 220.17V268.93Z" stroke="#D1D3D4" stroke-width="0.5" stroke-miterlimit="10" stroke-linejoin="round"/>
<path d="M152.26 208.15L139.83 215.15" stroke="#D1D3D4" stroke-width="0.5" stroke-miterlimit="10" stroke-linejoin="round"/>
<path d="M132.8 219.11L130.91 220.17L134.37 221.91L160.5 207.21L159.12 206.51" stroke="#D1D3D4" stroke-width="0.5" stroke-miterlimit="10" stroke-linejoin="round"/>
<path d="M152.86 208.73V205.36L150.67 203.26V204.97C150.67 206.03 151.1 207.04 151.87 207.78L152.86 208.73Z" stroke="#D1D3D4" stroke-width="0.5" stroke-miterlimit="10" stroke-linejoin="round"/>
<path d="M150.66 203.26C150.66 203.26 150.56 197.14 155.05 193.14C155.05 193.14 152.86 200.98 152.86 205.35L150.66 203.26Z" stroke="#D1D3D4" stroke-width="0.5" stroke-miterlimit="10" stroke-linejoin="round"/>
<path d="M159.441 203.26C159.441 203.26 159.541 197.14 155.051 193.14C155.051 193.14 157.241 200.98 157.241 205.35L159.441 203.26Z" stroke="#D1D3D4" stroke-width="0.5" stroke-miterlimit="10" stroke-linejoin="round"/>
<path d="M157.25 208.73V205.36L159.44 203.26V204.97C159.44 206.03 159.01 207.04 158.24 207.78L157.25 208.73Z" stroke="#D1D3D4" stroke-width="0.5" stroke-miterlimit="10" stroke-linejoin="round"/>
<path d="M152.859 205.35C152.859 205.35 152.859 199.28 155.049 193.14C156.989 198.07 157.239 205.35 157.239 205.35H152.859Z" stroke="#D1D3D4" stroke-width="0.5" stroke-miterlimit="10" stroke-linejoin="round"/>
<path d="M157.249 205.35H152.859V208.72H157.249V205.35Z" stroke="#D1D3D4" stroke-width="0.5" stroke-miterlimit="10" stroke-linejoin="round"/>
<path d="M133.249 219.57V216.2L131.059 214.1V215.81C131.059 216.87 131.489 217.88 132.259 218.62L133.249 219.57Z" stroke="#D1D3D4" stroke-width="0.5" stroke-miterlimit="10" stroke-linejoin="round"/>
<path d="M131.059 214.1C131.059 214.1 130.959 207.98 135.449 203.98C135.449 203.98 133.259 211.82 133.259 216.19L131.059 214.1Z" stroke="#D1D3D4" stroke-width="0.5" stroke-miterlimit="10" stroke-linejoin="round"/>
<path d="M139.829 214.1C139.829 214.1 139.929 207.98 135.439 203.98C135.439 203.98 137.63 211.82 137.63 216.19L139.829 214.1Z" stroke="#D1D3D4" stroke-width="0.5" stroke-miterlimit="10" stroke-linejoin="round"/>
<path d="M137.639 219.57V216.2L139.829 214.1V215.81C139.829 216.87 139.399 217.88 138.629 218.62L137.639 219.57Z" stroke="#D1D3D4" stroke-width="0.5" stroke-miterlimit="10" stroke-linejoin="round"/>
<path d="M133.248 216.2C133.248 216.2 133.248 210.13 135.438 203.99C137.378 208.92 137.628 216.2 137.628 216.2H133.248Z" stroke="#D1D3D4" stroke-width="0.5" stroke-miterlimit="10" stroke-linejoin="round"/>
<path d="M137.638 216.2H133.248V219.57H137.638V216.2Z" stroke="#D1D3D4" stroke-width="0.5" stroke-miterlimit="10" stroke-linejoin="round"/>
<path d="M60.1387 139.35L62.1086 137.3L61.2687 141.45L60.1387 139.35Z" stroke="#D1D3D4" stroke-width="0.5" stroke-miterlimit="10" stroke-linejoin="round"/>
<path d="M123.49 139.35L121.52 137.3L122.41 141.71L123.49 139.35Z" stroke="#D1D3D4" stroke-width="0.5" stroke-miterlimit="10" stroke-linejoin="round"/>
<path d="M124.779 136.85C124.779 136.85 137.739 147.15 132.889 158.94" stroke="#D1D3D4" stroke-width="0.5" stroke-miterlimit="10" stroke-linejoin="round"/>
<path d="M48.8789 189.85H54.8689" stroke="#D1D3D4" stroke-width="0.5" stroke-miterlimit="10" stroke-linejoin="round"/>
</svg>
