<svg viewBox="0 0 509 44" fill="none" xmlns="http://www.w3.org/2000/svg">
<path d="M2.2308 1L1.05078 16.42H3.4808V43.39L506.581 43.33V16.35H508.071L504.831 1H2.2308Z" fill="currentColor"/>
<path d="M506.45 43.4399L3.5 43.5399V16.46H506.45V43.4399Z" stroke="#D1D3D4" stroke-width="0.5" stroke-miterlimit="10" stroke-linejoin="bevel"/>
<path d="M6.27139 16.3594H5.19141V22.2493H6.27139V16.3594Z" stroke="#D1D3D4" stroke-width="0.5" stroke-miterlimit="10" stroke-linejoin="bevel"/>
<path d="M15.8007 16.3594H14.7207V22.2493H15.8007V16.3594Z" stroke="#D1D3D4" stroke-width="0.5" stroke-miterlimit="10" stroke-linejoin="bevel"/>
<path d="M25.3203 16.3594H24.2402V22.2493H25.3203V16.3594Z" stroke="#D1D3D4" stroke-width="0.5" stroke-miterlimit="10" stroke-linejoin="bevel"/>
<path d="M34.8515 16.3594H33.7715V22.2493H34.8515V16.3594Z" stroke="#D1D3D4" stroke-width="0.5" stroke-miterlimit="10" stroke-linejoin="bevel"/>
<path d="M44.3808 16.3594H43.3008V22.2593H44.3808V16.3594Z" stroke="#D1D3D4" stroke-width="0.5" stroke-miterlimit="10" stroke-linejoin="bevel"/>
<path d="M53.9003 16.3496H52.8203V22.2496H53.9003V16.3496Z" stroke="#D1D3D4" stroke-width="0.5" stroke-miterlimit="10" stroke-linejoin="bevel"/>
<path d="M63.4316 16.3496H62.3516V22.2496H63.4316V16.3496Z" stroke="#D1D3D4" stroke-width="0.5" stroke-miterlimit="10" stroke-linejoin="bevel"/>
<path d="M72.9609 16.3496H71.8809V22.2496H72.9609V16.3496Z" stroke="#D1D3D4" stroke-width="0.5" stroke-miterlimit="10" stroke-linejoin="bevel"/>
<path d="M82.4803 16.3496H81.4004V22.2496H82.4803V16.3496Z" stroke="#D1D3D4" stroke-width="0.5" stroke-miterlimit="10" stroke-linejoin="bevel"/>
<path d="M91.0397 16.3496H88.4297V20.5996H91.0397V16.3496Z" stroke="#D1D3D4" stroke-width="0.5" stroke-miterlimit="10" stroke-linejoin="bevel"/>
<path d="M93.7498 20.5995H93.3398L93.5398 18.4795L93.7498 20.5995Z" stroke="#D1D3D4" stroke-width="0.5" stroke-miterlimit="10" stroke-linejoin="bevel"/>
<path d="M98.6393 16.3496H96.0293V20.5996H98.6393V16.3496Z" stroke="#D1D3D4" stroke-width="0.5" stroke-miterlimit="10" stroke-linejoin="bevel"/>
<path d="M101.349 20.5995H100.939L101.139 18.4795L101.349 20.5995Z" stroke="#D1D3D4" stroke-width="0.5" stroke-miterlimit="10" stroke-linejoin="bevel"/>
<path d="M106.239 16.3496H103.629V20.5996H106.239V16.3496Z" stroke="#D1D3D4" stroke-width="0.5" stroke-miterlimit="10" stroke-linejoin="bevel"/>
<path d="M108.949 20.5995H108.529L108.739 18.4795L108.949 20.5995Z" stroke="#D1D3D4" stroke-width="0.5" stroke-miterlimit="10" stroke-linejoin="bevel"/>
<path d="M113.841 16.3496H111.23V20.5996H113.841V16.3496Z" stroke="#D1D3D4" stroke-width="0.5" stroke-miterlimit="10" stroke-linejoin="bevel"/>
<path d="M116.551 20.5995H116.131L116.341 18.4795L116.551 20.5995Z" stroke="#D1D3D4" stroke-width="0.5" stroke-miterlimit="10" stroke-linejoin="bevel"/>
<path d="M121.44 16.3496H118.83V20.5996H121.44V16.3496Z" stroke="#D1D3D4" stroke-width="0.5" stroke-miterlimit="10" stroke-linejoin="bevel"/>
<path d="M124.151 20.5995H123.73L123.94 18.4795L124.151 20.5995Z" stroke="#D1D3D4" stroke-width="0.5" stroke-miterlimit="10" stroke-linejoin="bevel"/>
<path d="M129.04 16.3496H126.43V20.5996H129.04V16.3496Z" stroke="#D1D3D4" stroke-width="0.5" stroke-miterlimit="10" stroke-linejoin="bevel"/>
<path d="M131.75 20.5995H131.33L131.54 18.4795L131.75 20.5995Z" stroke="#D1D3D4" stroke-width="0.5" stroke-miterlimit="10" stroke-linejoin="bevel"/>
<path d="M136.639 16.3496H134.029V20.5996H136.639V16.3496Z" stroke="#D1D3D4" stroke-width="0.5" stroke-miterlimit="10" stroke-linejoin="bevel"/>
<path d="M139.35 20.5995H138.93L139.14 18.4795L139.35 20.5995Z" stroke="#D1D3D4" stroke-width="0.5" stroke-miterlimit="10" stroke-linejoin="bevel"/>
<path d="M144.239 16.3496H141.629V20.5996H144.239V16.3496Z" stroke="#D1D3D4" stroke-width="0.5" stroke-miterlimit="10" stroke-linejoin="bevel"/>
<path d="M146.949 20.5995H146.529L146.739 18.4795L146.949 20.5995Z" stroke="#D1D3D4" stroke-width="0.5" stroke-miterlimit="10" stroke-linejoin="bevel"/>
<path d="M151.841 16.3496H149.23V20.5996H151.841V16.3496Z" stroke="#D1D3D4" stroke-width="0.5" stroke-miterlimit="10" stroke-linejoin="bevel"/>
<path d="M154.551 20.5995H154.131L154.341 18.4795L154.551 20.5995Z" stroke="#D1D3D4" stroke-width="0.5" stroke-miterlimit="10" stroke-linejoin="bevel"/>
<path d="M159.44 16.3496H156.83V20.5996H159.44V16.3496Z" stroke="#D1D3D4" stroke-width="0.5" stroke-miterlimit="10" stroke-linejoin="bevel"/>
<path d="M162.151 20.5995H161.73L161.94 18.4795L162.151 20.5995Z" stroke="#D1D3D4" stroke-width="0.5" stroke-miterlimit="10" stroke-linejoin="bevel"/>
<path d="M167.04 16.3496H164.43V20.5996H167.04V16.3496Z" stroke="#D1D3D4" stroke-width="0.5" stroke-miterlimit="10" stroke-linejoin="bevel"/>
<path d="M169.75 20.5995H169.33L169.54 18.4795L169.75 20.5995Z" stroke="#D1D3D4" stroke-width="0.5" stroke-miterlimit="10" stroke-linejoin="bevel"/>
<path d="M174.639 16.3496H172.029V20.5996H174.639V16.3496Z" stroke="#D1D3D4" stroke-width="0.5" stroke-miterlimit="10" stroke-linejoin="bevel"/>
<path d="M177.35 20.5995H176.93L177.14 18.4795L177.35 20.5995Z" stroke="#D1D3D4" stroke-width="0.5" stroke-miterlimit="10" stroke-linejoin="bevel"/>
<path d="M182.239 16.3496H179.629V20.5996H182.239V16.3496Z" stroke="#D1D3D4" stroke-width="0.5" stroke-miterlimit="10" stroke-linejoin="bevel"/>
<path d="M184.949 20.5995H184.529L184.739 18.4795L184.949 20.5995Z" stroke="#D1D3D4" stroke-width="0.5" stroke-miterlimit="10" stroke-linejoin="bevel"/>
<path d="M189.841 16.3496H187.23V20.5996H189.841V16.3496Z" stroke="#D1D3D4" stroke-width="0.5" stroke-miterlimit="10" stroke-linejoin="bevel"/>
<path d="M192.541 20.5995H192.131L192.341 18.4795L192.541 20.5995Z" stroke="#D1D3D4" stroke-width="0.5" stroke-miterlimit="10" stroke-linejoin="bevel"/>
<path d="M197.44 16.3496H194.83V20.5996H197.44V16.3496Z" stroke="#D1D3D4" stroke-width="0.5" stroke-miterlimit="10" stroke-linejoin="bevel"/>
<path d="M200.141 20.5995H199.73L199.94 18.4795L200.141 20.5995Z" stroke="#D1D3D4" stroke-width="0.5" stroke-miterlimit="10" stroke-linejoin="bevel"/>
<path d="M205.04 16.3496H202.43V20.5996H205.04V16.3496Z" stroke="#D1D3D4" stroke-width="0.5" stroke-miterlimit="10" stroke-linejoin="bevel"/>
<path d="M207.74 20.5995H207.33L207.54 18.4795L207.74 20.5995Z" stroke="#D1D3D4" stroke-width="0.5" stroke-miterlimit="10" stroke-linejoin="bevel"/>
<path d="M212.639 16.3496H210.029V20.5996H212.639V16.3496Z" stroke="#D1D3D4" stroke-width="0.5" stroke-miterlimit="10" stroke-linejoin="bevel"/>
<path d="M215.34 20.5995H214.93L215.14 18.4795L215.34 20.5995Z" stroke="#D1D3D4" stroke-width="0.5" stroke-miterlimit="10" stroke-linejoin="bevel"/>
<path d="M220.239 16.3496H217.629V20.5996H220.239V16.3496Z" stroke="#D1D3D4" stroke-width="0.5" stroke-miterlimit="10" stroke-linejoin="bevel"/>
<path d="M222.939 20.5995H222.529L222.739 18.4795L222.939 20.5995Z" stroke="#D1D3D4" stroke-width="0.5" stroke-miterlimit="10" stroke-linejoin="bevel"/>
<path d="M227.841 16.3496H225.23V20.5996H227.841V16.3496Z" stroke="#D1D3D4" stroke-width="0.5" stroke-miterlimit="10" stroke-linejoin="bevel"/>
<path d="M230.541 20.5995H230.131L230.341 18.4795L230.541 20.5995Z" stroke="#D1D3D4" stroke-width="0.5" stroke-miterlimit="10" stroke-linejoin="bevel"/>
<path d="M235.44 16.3496H232.83V20.5996H235.44V16.3496Z" stroke="#D1D3D4" stroke-width="0.5" stroke-miterlimit="10" stroke-linejoin="bevel"/>
<path d="M238.141 20.5995H237.73L237.93 18.4795L238.141 20.5995Z" stroke="#D1D3D4" stroke-width="0.5" stroke-miterlimit="10" stroke-linejoin="bevel"/>
<path d="M243.04 16.3496H240.43V20.5996H243.04V16.3496Z" stroke="#D1D3D4" stroke-width="0.5" stroke-miterlimit="10" stroke-linejoin="bevel"/>
<path d="M245.74 20.5995H245.33L245.53 18.4795L245.74 20.5995Z" stroke="#D1D3D4" stroke-width="0.5" stroke-miterlimit="10" stroke-linejoin="bevel"/>
<path d="M250.639 16.3496H248.029V20.5996H250.639V16.3496Z" stroke="#D1D3D4" stroke-width="0.5" stroke-miterlimit="10" stroke-linejoin="bevel"/>
<path d="M253.34 20.5995H252.93L253.13 18.4795L253.34 20.5995Z" stroke="#D1D3D4" stroke-width="0.5" stroke-miterlimit="10" stroke-linejoin="bevel"/>
<path d="M258.239 16.3496H255.629V20.5996H258.239V16.3496Z" stroke="#D1D3D4" stroke-width="0.5" stroke-miterlimit="10" stroke-linejoin="bevel"/>
<path d="M260.939 20.5995H260.529L260.729 18.4795L260.939 20.5995Z" stroke="#D1D3D4" stroke-width="0.5" stroke-miterlimit="10" stroke-linejoin="bevel"/>
<path d="M265.841 16.3496H263.23V20.5996H265.841V16.3496Z" stroke="#D1D3D4" stroke-width="0.5" stroke-miterlimit="10" stroke-linejoin="bevel"/>
<path d="M268.541 20.5995H268.131L268.331 18.4795L268.541 20.5995Z" stroke="#D1D3D4" stroke-width="0.5" stroke-miterlimit="10" stroke-linejoin="bevel"/>
<path d="M273.44 16.3496H270.83V20.5996H273.44V16.3496Z" stroke="#D1D3D4" stroke-width="0.5" stroke-miterlimit="10" stroke-linejoin="bevel"/>
<path d="M276.141 20.5995H275.73L275.93 18.4795L276.141 20.5995Z" stroke="#D1D3D4" stroke-width="0.5" stroke-miterlimit="10" stroke-linejoin="bevel"/>
<path d="M281.04 16.3496H278.43V20.5996H281.04V16.3496Z" stroke="#D1D3D4" stroke-width="0.5" stroke-miterlimit="10" stroke-linejoin="bevel"/>
<path d="M283.74 20.5995H283.33L283.53 18.4795L283.74 20.5995Z" stroke="#D1D3D4" stroke-width="0.5" stroke-miterlimit="10" stroke-linejoin="bevel"/>
<path d="M288.639 16.3496H286.029V20.5996H288.639V16.3496Z" stroke="#D1D3D4" stroke-width="0.5" stroke-miterlimit="10" stroke-linejoin="bevel"/>
<path d="M291.34 20.5995H290.92L291.13 18.4795L291.34 20.5995Z" stroke="#D1D3D4" stroke-width="0.5" stroke-miterlimit="10" stroke-linejoin="bevel"/>
<path d="M296.239 16.3496H293.629V20.5996H296.239V16.3496Z" stroke="#D1D3D4" stroke-width="0.5" stroke-miterlimit="10" stroke-linejoin="bevel"/>
<path d="M298.94 20.5995H298.52L298.729 18.4795L298.94 20.5995Z" stroke="#D1D3D4" stroke-width="0.5" stroke-miterlimit="10" stroke-linejoin="bevel"/>
<path d="M303.841 16.3496H301.23V20.5996H303.841V16.3496Z" stroke="#D1D3D4" stroke-width="0.5" stroke-miterlimit="10" stroke-linejoin="bevel"/>
<path d="M306.541 20.5995H306.121L306.331 18.4795L306.541 20.5995Z" stroke="#D1D3D4" stroke-width="0.5" stroke-miterlimit="10" stroke-linejoin="bevel"/>
<path d="M311.44 16.3496H308.83V20.5996H311.44V16.3496Z" stroke="#D1D3D4" stroke-width="0.5" stroke-miterlimit="10" stroke-linejoin="bevel"/>
<path d="M314.141 20.5995H313.721L313.931 18.4795L314.141 20.5995Z" stroke="#D1D3D4" stroke-width="0.5" stroke-miterlimit="10" stroke-linejoin="bevel"/>
<path d="M319.04 16.3496H316.43V20.5996H319.04V16.3496Z" stroke="#D1D3D4" stroke-width="0.5" stroke-miterlimit="10" stroke-linejoin="bevel"/>
<path d="M321.74 20.5995H321.32L321.53 18.4795L321.74 20.5995Z" stroke="#D1D3D4" stroke-width="0.5" stroke-miterlimit="10" stroke-linejoin="bevel"/>
<path d="M326.639 16.3496H324.029V20.5996H326.639V16.3496Z" stroke="#D1D3D4" stroke-width="0.5" stroke-miterlimit="10" stroke-linejoin="bevel"/>
<path d="M329.34 20.5995H328.92L329.13 18.4795L329.34 20.5995Z" stroke="#D1D3D4" stroke-width="0.5" stroke-miterlimit="10" stroke-linejoin="bevel"/>
<path d="M334.239 16.3496H331.629V20.5996H334.239V16.3496Z" stroke="#D1D3D4" stroke-width="0.5" stroke-miterlimit="10" stroke-linejoin="bevel"/>
<path d="M336.94 20.5995H336.52L336.729 18.4795L336.94 20.5995Z" stroke="#D1D3D4" stroke-width="0.5" stroke-miterlimit="10" stroke-linejoin="bevel"/>
<path d="M341.841 16.3496H339.23V20.5996H341.841V16.3496Z" stroke="#D1D3D4" stroke-width="0.5" stroke-miterlimit="10" stroke-linejoin="bevel"/>
<path d="M344.541 20.5995H344.121L344.331 18.4795L344.541 20.5995Z" stroke="#D1D3D4" stroke-width="0.5" stroke-miterlimit="10" stroke-linejoin="bevel"/>
<path d="M349.44 16.3496H346.83V20.5996H349.44V16.3496Z" stroke="#D1D3D4" stroke-width="0.5" stroke-miterlimit="10" stroke-linejoin="bevel"/>
<path d="M352.141 20.5995H351.721L351.931 18.4795L352.141 20.5995Z" stroke="#D1D3D4" stroke-width="0.5" stroke-miterlimit="10" stroke-linejoin="bevel"/>
<path d="M357.04 16.3496H354.43V20.5996H357.04V16.3496Z" stroke="#D1D3D4" stroke-width="0.5" stroke-miterlimit="10" stroke-linejoin="bevel"/>
<path d="M359.74 20.5995H359.32L359.53 18.4795L359.74 20.5995Z" stroke="#D1D3D4" stroke-width="0.5" stroke-miterlimit="10" stroke-linejoin="bevel"/>
<path d="M364.639 16.3496H362.029V20.5996H364.639V16.3496Z" stroke="#D1D3D4" stroke-width="0.5" stroke-miterlimit="10" stroke-linejoin="bevel"/>
<path d="M367.34 20.5995H366.92L367.13 18.4795L367.34 20.5995Z" stroke="#D1D3D4" stroke-width="0.5" stroke-miterlimit="10" stroke-linejoin="bevel"/>
<path d="M372.239 16.3496H369.629V20.5996H372.239V16.3496Z" stroke="#D1D3D4" stroke-width="0.5" stroke-miterlimit="10" stroke-linejoin="bevel"/>
<path d="M374.93 20.5995H374.52L374.729 18.4795L374.93 20.5995Z" stroke="#D1D3D4" stroke-width="0.5" stroke-miterlimit="10" stroke-linejoin="bevel"/>
<path d="M379.841 16.3496H377.23V20.5996H379.841V16.3496Z" stroke="#D1D3D4" stroke-width="0.5" stroke-miterlimit="10" stroke-linejoin="bevel"/>
<path d="M382.531 20.5995H382.121L382.331 18.4795L382.531 20.5995Z" stroke="#D1D3D4" stroke-width="0.5" stroke-miterlimit="10" stroke-linejoin="bevel"/>
<path d="M387.44 16.3496H384.83V20.5996H387.44V16.3496Z" stroke="#D1D3D4" stroke-width="0.5" stroke-miterlimit="10" stroke-linejoin="bevel"/>
<path d="M390.131 20.5995H389.721L389.931 18.4795L390.131 20.5995Z" stroke="#D1D3D4" stroke-width="0.5" stroke-miterlimit="10" stroke-linejoin="bevel"/>
<path d="M395.04 16.3496H392.43V20.5996H395.04V16.3496Z" stroke="#D1D3D4" stroke-width="0.5" stroke-miterlimit="10" stroke-linejoin="bevel"/>
<path d="M397.73 20.5995H397.32L397.53 18.4795L397.73 20.5995Z" stroke="#D1D3D4" stroke-width="0.5" stroke-miterlimit="10" stroke-linejoin="bevel"/>
<path d="M402.639 16.3496H400.029V20.5996H402.639V16.3496Z" stroke="#D1D3D4" stroke-width="0.5" stroke-miterlimit="10" stroke-linejoin="bevel"/>
<path d="M405.33 20.5995H404.92L405.13 18.4795L405.33 20.5995Z" stroke="#D1D3D4" stroke-width="0.5" stroke-miterlimit="10" stroke-linejoin="bevel"/>
<path d="M410.239 16.3496H407.629V20.5996H410.239V16.3496Z" stroke="#D1D3D4" stroke-width="0.5" stroke-miterlimit="10" stroke-linejoin="bevel"/>
<path d="M412.93 20.5995H412.52L412.729 18.4795L412.93 20.5995Z" stroke="#D1D3D4" stroke-width="0.5" stroke-miterlimit="10" stroke-linejoin="bevel"/>
<path d="M417.841 16.3496H415.23V20.5996H417.841V16.3496Z" stroke="#D1D3D4" stroke-width="0.5" stroke-miterlimit="10" stroke-linejoin="bevel"/>
<path d="M420.531 20.5995H420.121L420.331 18.4795L420.531 20.5995Z" stroke="#D1D3D4" stroke-width="0.5" stroke-miterlimit="10" stroke-linejoin="bevel"/>
<path d="M425.44 16.3496H422.83V20.5996H425.44V16.3496Z" stroke="#D1D3D4" stroke-width="0.5" stroke-miterlimit="10" stroke-linejoin="bevel"/>
<path d="M428.131 20.5995H427.721L427.921 18.4795L428.131 20.5995Z" stroke="#D1D3D4" stroke-width="0.5" stroke-miterlimit="10" stroke-linejoin="bevel"/>
<path d="M433.04 16.3496H430.43V20.5996H433.04V16.3496Z" stroke="#D1D3D4" stroke-width="0.5" stroke-miterlimit="10" stroke-linejoin="bevel"/>
<path d="M435.73 20.5995H435.32L435.52 18.4795L435.73 20.5995Z" stroke="#D1D3D4" stroke-width="0.5" stroke-miterlimit="10" stroke-linejoin="bevel"/>
<path d="M440.639 16.3496H438.029V20.5996H440.639V16.3496Z" stroke="#D1D3D4" stroke-width="0.5" stroke-miterlimit="10" stroke-linejoin="bevel"/>
<path d="M443.33 20.5995H442.92L443.12 18.4795L443.33 20.5995Z" stroke="#D1D3D4" stroke-width="0.5" stroke-miterlimit="10" stroke-linejoin="bevel"/>
<path d="M448.239 16.3496H445.629V20.5996H448.239V16.3496Z" stroke="#D1D3D4" stroke-width="0.5" stroke-miterlimit="10" stroke-linejoin="bevel"/>
<path d="M450.93 20.5995H450.52L450.719 18.4795L450.93 20.5995Z" stroke="#D1D3D4" stroke-width="0.5" stroke-miterlimit="10" stroke-linejoin="bevel"/>
<path d="M455.841 16.3496H453.23V20.5996H455.841V16.3496Z" stroke="#D1D3D4" stroke-width="0.5" stroke-miterlimit="10" stroke-linejoin="bevel"/>
<path d="M458.531 20.5995H458.121L458.321 18.4795L458.531 20.5995Z" stroke="#D1D3D4" stroke-width="0.5" stroke-miterlimit="10" stroke-linejoin="bevel"/>
<path d="M463.44 16.3496H460.83V20.5996H463.44V16.3496Z" stroke="#D1D3D4" stroke-width="0.5" stroke-miterlimit="10" stroke-linejoin="bevel"/>
<path d="M466.131 20.5995H465.721L465.921 18.4795L466.131 20.5995Z" stroke="#D1D3D4" stroke-width="0.5" stroke-miterlimit="10" stroke-linejoin="bevel"/>
<path d="M471.04 16.3496H468.43V20.5996H471.04V16.3496Z" stroke="#D1D3D4" stroke-width="0.5" stroke-miterlimit="10" stroke-linejoin="bevel"/>
<path d="M473.73 20.5995H473.32L473.52 18.4795L473.73 20.5995Z" stroke="#D1D3D4" stroke-width="0.5" stroke-miterlimit="10" stroke-linejoin="bevel"/>
<path d="M478.639 16.3496H476.029V20.5996H478.639V16.3496Z" stroke="#D1D3D4" stroke-width="0.5" stroke-miterlimit="10" stroke-linejoin="bevel"/>
<path d="M481.33 20.5995H480.91L481.12 18.4795L481.33 20.5995Z" stroke="#D1D3D4" stroke-width="0.5" stroke-miterlimit="10" stroke-linejoin="bevel"/>
<path d="M486.239 16.3496H483.629V20.5996H486.239V16.3496Z" stroke="#D1D3D4" stroke-width="0.5" stroke-miterlimit="10" stroke-linejoin="bevel"/>
<path d="M488.93 20.5995H488.51L488.72 18.4795L488.93 20.5995Z" stroke="#D1D3D4" stroke-width="0.5" stroke-miterlimit="10" stroke-linejoin="bevel"/>
<path d="M493.841 16.3496H491.23V20.5996H493.841V16.3496Z" stroke="#D1D3D4" stroke-width="0.5" stroke-miterlimit="10" stroke-linejoin="bevel"/>
<path d="M496.531 20.5995H496.111L496.321 18.4795L496.531 20.5995Z" stroke="#D1D3D4" stroke-width="0.5" stroke-miterlimit="10" stroke-linejoin="bevel"/>
<path d="M501.44 16.3496H498.83V20.5996H501.44V16.3496Z" stroke="#D1D3D4" stroke-width="0.5" stroke-miterlimit="10" stroke-linejoin="bevel"/>
<path d="M504.131 20.5995H503.711L503.921 18.4795L504.131 20.5995Z" stroke="#D1D3D4" stroke-width="0.5" stroke-miterlimit="10" stroke-linejoin="bevel"/>
<path d="M504.826 1H2.29733L1 16.35H508.066L504.826 1Z" stroke="#D1D3D4" stroke-width="0.5" stroke-miterlimit="10" stroke-linejoin="bevel"/>
<path d="M3.54102 16.35L4.66101 1" stroke="#D1D3D4" stroke-width="0.5" stroke-miterlimit="10" stroke-linejoin="bevel"/>
<path d="M6 16.35L7.10001 1" stroke="#D1D3D4" stroke-width="0.5" stroke-miterlimit="10" stroke-linejoin="bevel"/>
<path d="M8.46094 16.35L9.54095 1" stroke="#D1D3D4" stroke-width="0.5" stroke-miterlimit="10" stroke-linejoin="bevel"/>
<path d="M10.9199 16.35L11.9799 1" stroke="#D1D3D4" stroke-width="0.5" stroke-miterlimit="10" stroke-linejoin="bevel"/>
<path d="M13.3809 16.35L14.4209 1" stroke="#D1D3D4" stroke-width="0.5" stroke-miterlimit="10" stroke-linejoin="bevel"/>
<path d="M15.8516 16.35L16.8615 1" stroke="#D1D3D4" stroke-width="0.5" stroke-miterlimit="10" stroke-linejoin="bevel"/>
<path d="M18.3105 16.35L19.3005 1" stroke="#D1D3D4" stroke-width="0.5" stroke-miterlimit="10" stroke-linejoin="bevel"/>
<path d="M20.7715 16.35L21.7415 1" stroke="#D1D3D4" stroke-width="0.5" stroke-miterlimit="10" stroke-linejoin="bevel"/>
<path d="M23.2305 16.35L24.1805 1" stroke="#D1D3D4" stroke-width="0.5" stroke-miterlimit="10" stroke-linejoin="bevel"/>
<path d="M25.6914 16.35L26.6214 1" stroke="#D1D3D4" stroke-width="0.5" stroke-miterlimit="10" stroke-linejoin="bevel"/>
<path d="M28.1504 16.35L29.0604 1" stroke="#D1D3D4" stroke-width="0.5" stroke-miterlimit="10" stroke-linejoin="bevel"/>
<path d="M30.6113 16.35L31.5013 1" stroke="#D1D3D4" stroke-width="0.5" stroke-miterlimit="10" stroke-linejoin="bevel"/>
<path d="M33.0703 16.35L33.9403 1" stroke="#D1D3D4" stroke-width="0.5" stroke-miterlimit="10" stroke-linejoin="bevel"/>
<path d="M35.541 16.35L36.381 1" stroke="#D1D3D4" stroke-width="0.5" stroke-miterlimit="10" stroke-linejoin="bevel"/>
<path d="M38 16.35L38.82 1" stroke="#D1D3D4" stroke-width="0.5" stroke-miterlimit="10" stroke-linejoin="bevel"/>
<path d="M40.4609 16.35L41.261 1" stroke="#D1D3D4" stroke-width="0.5" stroke-miterlimit="10" stroke-linejoin="bevel"/>
<path d="M42.9199 16.35L43.6999 1" stroke="#D1D3D4" stroke-width="0.5" stroke-miterlimit="10" stroke-linejoin="bevel"/>
<path d="M45.3809 16.35L46.1409 1" stroke="#D1D3D4" stroke-width="0.5" stroke-miterlimit="10" stroke-linejoin="bevel"/>
<path d="M47.8418 16.35L48.5818 1" stroke="#D1D3D4" stroke-width="0.5" stroke-miterlimit="10" stroke-linejoin="bevel"/>
<path d="M50.3008 16.35L51.0208 1" stroke="#D1D3D4" stroke-width="0.5" stroke-miterlimit="10" stroke-linejoin="bevel"/>
<path d="M52.7617 16.35L53.4617 1" stroke="#D1D3D4" stroke-width="0.5" stroke-miterlimit="10" stroke-linejoin="bevel"/>
<path d="M55.2207 16.35L55.9008 1" stroke="#D1D3D4" stroke-width="0.5" stroke-miterlimit="10" stroke-linejoin="bevel"/>
<path d="M57.6914 16.35L58.3414 1" stroke="#D1D3D4" stroke-width="0.5" stroke-miterlimit="10" stroke-linejoin="bevel"/>
<path d="M60.1504 16.35L60.7804 1" stroke="#D1D3D4" stroke-width="0.5" stroke-miterlimit="10" stroke-linejoin="bevel"/>
<path d="M62.6113 16.35L63.2213 1" stroke="#D1D3D4" stroke-width="0.5" stroke-miterlimit="10" stroke-linejoin="bevel"/>
<path d="M65.0703 16.35L65.6603 1" stroke="#D1D3D4" stroke-width="0.5" stroke-miterlimit="10" stroke-linejoin="bevel"/>
<path d="M67.5312 16.35L68.1012 1" stroke="#D1D3D4" stroke-width="0.5" stroke-miterlimit="10" stroke-linejoin="bevel"/>
<path d="M69.9902 16.35L70.5402 1" stroke="#D1D3D4" stroke-width="0.5" stroke-miterlimit="10" stroke-linejoin="bevel"/>
<path d="M72.4512 16.35L72.9811 1" stroke="#D1D3D4" stroke-width="0.5" stroke-miterlimit="10" stroke-linejoin="bevel"/>
<path d="M74.9102 16.35L75.4202 1" stroke="#D1D3D4" stroke-width="0.5" stroke-miterlimit="10" stroke-linejoin="bevel"/>
<path d="M77.3711 16.35L77.8611 1" stroke="#D1D3D4" stroke-width="0.5" stroke-miterlimit="10" stroke-linejoin="bevel"/>
<path d="M79.8418 16.35L80.3018 1" stroke="#D1D3D4" stroke-width="0.5" stroke-miterlimit="10" stroke-linejoin="bevel"/>
<path d="M82.3008 16.35L82.7408 1" stroke="#D1D3D4" stroke-width="0.5" stroke-miterlimit="10" stroke-linejoin="bevel"/>
<path d="M84.7617 16.35L85.1817 1" stroke="#D1D3D4" stroke-width="0.5" stroke-miterlimit="10" stroke-linejoin="bevel"/>
<path d="M87.2207 16.35L87.6207 1" stroke="#D1D3D4" stroke-width="0.5" stroke-miterlimit="10" stroke-linejoin="bevel"/>
<path d="M89.6816 16.35L90.0616 1" stroke="#D1D3D4" stroke-width="0.5" stroke-miterlimit="10" stroke-linejoin="bevel"/>
<path d="M92.1406 16.35L92.5006 1" stroke="#D1D3D4" stroke-width="0.5" stroke-miterlimit="10" stroke-linejoin="bevel"/>
<path d="M94.6016 16.35L94.9416 1" stroke="#D1D3D4" stroke-width="0.5" stroke-miterlimit="10" stroke-linejoin="bevel"/>
<path d="M97.0605 16.35L97.3806 1" stroke="#D1D3D4" stroke-width="0.5" stroke-miterlimit="10" stroke-linejoin="bevel"/>
<path d="M99.5215 16.35L99.8215 1" stroke="#D1D3D4" stroke-width="0.5" stroke-miterlimit="10" stroke-linejoin="bevel"/>
<path d="M101.99 16.35L102.26 1" stroke="#D1D3D4" stroke-width="0.5" stroke-miterlimit="10" stroke-linejoin="bevel"/>
<path d="M104.451 16.35L104.701 1" stroke="#D1D3D4" stroke-width="0.5" stroke-miterlimit="10" stroke-linejoin="bevel"/>
<path d="M106.91 16.35L107.14 1" stroke="#D1D3D4" stroke-width="0.5" stroke-miterlimit="10" stroke-linejoin="bevel"/>
<path d="M109.371 16.35L109.581 1" stroke="#D1D3D4" stroke-width="0.5" stroke-miterlimit="10" stroke-linejoin="bevel"/>
<path d="M111.83 16.35L112.02 1" stroke="#D1D3D4" stroke-width="0.5" stroke-miterlimit="10" stroke-linejoin="bevel"/>
<path d="M114.291 16.35L114.461 1" stroke="#D1D3D4" stroke-width="0.5" stroke-miterlimit="10" stroke-linejoin="bevel"/>
<path d="M116.75 16.35L116.9 1" stroke="#D1D3D4" stroke-width="0.5" stroke-miterlimit="10" stroke-linejoin="bevel"/>
<path d="M119.211 16.35L119.341 1" stroke="#D1D3D4" stroke-width="0.5" stroke-miterlimit="10" stroke-linejoin="bevel"/>
<path d="M121.682 16.35L121.782 1" stroke="#D1D3D4" stroke-width="0.5" stroke-miterlimit="10" stroke-linejoin="bevel"/>
<path d="M124.141 16.35L124.221 1" stroke="#D1D3D4" stroke-width="0.5" stroke-miterlimit="10" stroke-linejoin="bevel"/>
<path d="M126.602 16.35L126.662 1" stroke="#D1D3D4" stroke-width="0.5" stroke-miterlimit="10" stroke-linejoin="bevel"/>
<path d="M129.061 16.35L129.101 1" stroke="#D1D3D4" stroke-width="0.5" stroke-miterlimit="10" stroke-linejoin="bevel"/>
<path d="M131.521 16.35L131.541 1" stroke="#D1D3D4" stroke-width="0.5" stroke-miterlimit="10" stroke-linejoin="bevel"/>
<path d="M133.98 16.35V1" stroke="#D1D3D4" stroke-width="0.5" stroke-miterlimit="10" stroke-linejoin="bevel"/>
<path d="M136.44 16.35L136.42 1" stroke="#D1D3D4" stroke-width="0.5" stroke-miterlimit="10" stroke-linejoin="bevel"/>
<path d="M138.901 16.35L138.861 1" stroke="#D1D3D4" stroke-width="0.5" stroke-miterlimit="10" stroke-linejoin="bevel"/>
<path d="M141.361 16.35L141.301 1" stroke="#D1D3D4" stroke-width="0.5" stroke-miterlimit="10" stroke-linejoin="bevel"/>
<path d="M143.83 16.35L143.74 1" stroke="#D1D3D4" stroke-width="0.5" stroke-miterlimit="10" stroke-linejoin="bevel"/>
<path d="M146.292 16.35L146.182 1" stroke="#D1D3D4" stroke-width="0.5" stroke-miterlimit="10" stroke-linejoin="bevel"/>
<path d="M148.751 16.35L148.621 1" stroke="#D1D3D4" stroke-width="0.5" stroke-miterlimit="10" stroke-linejoin="bevel"/>
<path d="M151.211 16.35L151.061 1" stroke="#D1D3D4" stroke-width="0.5" stroke-miterlimit="10" stroke-linejoin="bevel"/>
<path d="M153.67 16.35L153.5 1" stroke="#D1D3D4" stroke-width="0.5" stroke-miterlimit="10" stroke-linejoin="bevel"/>
<path d="M156.131 16.35L155.941 1" stroke="#D1D3D4" stroke-width="0.5" stroke-miterlimit="10" stroke-linejoin="bevel"/>
<path d="M158.591 16.35L158.381 1" stroke="#D1D3D4" stroke-width="0.5" stroke-miterlimit="10" stroke-linejoin="bevel"/>
<path d="M161.051 16.35L160.811 1" stroke="#D1D3D4" stroke-width="0.5" stroke-miterlimit="10" stroke-linejoin="bevel"/>
<path d="M163.51 16.35L163.25 1" stroke="#D1D3D4" stroke-width="0.5" stroke-miterlimit="10" stroke-linejoin="bevel"/>
<path d="M165.981 16.35L165.691 1" stroke="#D1D3D4" stroke-width="0.5" stroke-miterlimit="10" stroke-linejoin="bevel"/>
<path d="M168.441 16.35L168.131 1" stroke="#D1D3D4" stroke-width="0.5" stroke-miterlimit="10" stroke-linejoin="bevel"/>
<path d="M170.9 16.35L170.57 1" stroke="#D1D3D4" stroke-width="0.5" stroke-miterlimit="10" stroke-linejoin="bevel"/>
<path d="M173.362 16.35L173.012 1" stroke="#D1D3D4" stroke-width="0.5" stroke-miterlimit="10" stroke-linejoin="bevel"/>
<path d="M175.821 16.35L175.451 1" stroke="#D1D3D4" stroke-width="0.5" stroke-miterlimit="10" stroke-linejoin="bevel"/>
<path d="M178.281 16.35L177.891 1" stroke="#D1D3D4" stroke-width="0.5" stroke-miterlimit="10" stroke-linejoin="bevel"/>
<path d="M180.74 16.35L180.33 1" stroke="#D1D3D4" stroke-width="0.5" stroke-miterlimit="10" stroke-linejoin="bevel"/>
<path d="M183.201 16.35L182.771 1" stroke="#D1D3D4" stroke-width="0.5" stroke-miterlimit="10" stroke-linejoin="bevel"/>
<path d="M185.661 16.35L185.211 1" stroke="#D1D3D4" stroke-width="0.5" stroke-miterlimit="10" stroke-linejoin="bevel"/>
<path d="M188.13 16.35L187.65 1" stroke="#D1D3D4" stroke-width="0.5" stroke-miterlimit="10" stroke-linejoin="bevel"/>
<path d="M190.592 16.35L190.092 1" stroke="#D1D3D4" stroke-width="0.5" stroke-miterlimit="10" stroke-linejoin="bevel"/>
<path d="M193.051 16.35L192.531 1" stroke="#D1D3D4" stroke-width="0.5" stroke-miterlimit="10" stroke-linejoin="bevel"/>
<path d="M195.511 16.35L194.971 1" stroke="#D1D3D4" stroke-width="0.5" stroke-miterlimit="10" stroke-linejoin="bevel"/>
<path d="M197.97 16.35L197.41 1" stroke="#D1D3D4" stroke-width="0.5" stroke-miterlimit="10" stroke-linejoin="bevel"/>
<path d="M200.432 16.35L199.852 1" stroke="#D1D3D4" stroke-width="0.5" stroke-miterlimit="10" stroke-linejoin="bevel"/>
<path d="M202.891 16.35L202.291 1" stroke="#D1D3D4" stroke-width="0.5" stroke-miterlimit="10" stroke-linejoin="bevel"/>
<path d="M205.35 16.35L204.73 1" stroke="#D1D3D4" stroke-width="0.5" stroke-miterlimit="10" stroke-linejoin="bevel"/>
<path d="M207.82 16.35L207.17 1" stroke="#D1D3D4" stroke-width="0.5" stroke-miterlimit="10" stroke-linejoin="bevel"/>
<path d="M210.281 16.35L209.611 1" stroke="#D1D3D4" stroke-width="0.5" stroke-miterlimit="10" stroke-linejoin="bevel"/>
<path d="M212.741 16.35L212.051 1" stroke="#D1D3D4" stroke-width="0.5" stroke-miterlimit="10" stroke-linejoin="bevel"/>
<path d="M215.2 16.35L214.49 1" stroke="#D1D3D4" stroke-width="0.5" stroke-miterlimit="10" stroke-linejoin="bevel"/>
<path d="M217.662 16.35L216.932 1" stroke="#D1D3D4" stroke-width="0.5" stroke-miterlimit="10" stroke-linejoin="bevel"/>
<path d="M220.121 16.35L219.371 1" stroke="#D1D3D4" stroke-width="0.5" stroke-miterlimit="10" stroke-linejoin="bevel"/>
<path d="M222.581 16.35L221.811 1" stroke="#D1D3D4" stroke-width="0.5" stroke-miterlimit="10" stroke-linejoin="bevel"/>
<path d="M225.04 16.35L224.25 1" stroke="#D1D3D4" stroke-width="0.5" stroke-miterlimit="10" stroke-linejoin="bevel"/>
<path d="M227.501 16.35L226.691 1" stroke="#D1D3D4" stroke-width="0.5" stroke-miterlimit="10" stroke-linejoin="bevel"/>
<path d="M229.971 16.35L229.131 1" stroke="#D1D3D4" stroke-width="0.5" stroke-miterlimit="10" stroke-linejoin="bevel"/>
<path d="M232.43 16.35L231.57 1" stroke="#D1D3D4" stroke-width="0.5" stroke-miterlimit="10" stroke-linejoin="bevel"/>
<path d="M234.892 16.35L234.012 1" stroke="#D1D3D4" stroke-width="0.5" stroke-miterlimit="10" stroke-linejoin="bevel"/>
<path d="M237.351 16.35L236.451 1" stroke="#D1D3D4" stroke-width="0.5" stroke-miterlimit="10" stroke-linejoin="bevel"/>
<path d="M239.811 16.35L238.891 1" stroke="#D1D3D4" stroke-width="0.5" stroke-miterlimit="10" stroke-linejoin="bevel"/>
<path d="M242.27 16.35L241.33 1" stroke="#D1D3D4" stroke-width="0.5" stroke-miterlimit="10" stroke-linejoin="bevel"/>
<path d="M244.731 16.35L243.771 1" stroke="#D1D3D4" stroke-width="0.5" stroke-miterlimit="10" stroke-linejoin="bevel"/>
<path d="M247.191 16.35L246.211 1" stroke="#D1D3D4" stroke-width="0.5" stroke-miterlimit="10" stroke-linejoin="bevel"/>
<path d="M249.65 16.35L248.65 1" stroke="#D1D3D4" stroke-width="0.5" stroke-miterlimit="10" stroke-linejoin="bevel"/>
<path d="M252.122 16.35L251.092 1" stroke="#D1D3D4" stroke-width="0.5" stroke-miterlimit="10" stroke-linejoin="bevel"/>
<path d="M254.581 16.35L253.531 1" stroke="#D1D3D4" stroke-width="0.5" stroke-miterlimit="10" stroke-linejoin="bevel"/>
<path d="M257.041 16.35L255.971 1" stroke="#D1D3D4" stroke-width="0.5" stroke-miterlimit="10" stroke-linejoin="bevel"/>
<path d="M259.5 16.35L258.41 1" stroke="#D1D3D4" stroke-width="0.5" stroke-miterlimit="10" stroke-linejoin="bevel"/>
<path d="M261.962 16.35L260.852 1" stroke="#D1D3D4" stroke-width="0.5" stroke-miterlimit="10" stroke-linejoin="bevel"/>
<path d="M264.421 16.35L263.291 1" stroke="#D1D3D4" stroke-width="0.5" stroke-miterlimit="10" stroke-linejoin="bevel"/>
<path d="M266.88 16.35L265.73 1" stroke="#D1D3D4" stroke-width="0.5" stroke-miterlimit="10" stroke-linejoin="bevel"/>
<path d="M269.34 16.35L268.17 1" stroke="#D1D3D4" stroke-width="0.5" stroke-miterlimit="10" stroke-linejoin="bevel"/>
<path d="M271.801 16.35L270.611 1" stroke="#D1D3D4" stroke-width="0.5" stroke-miterlimit="10" stroke-linejoin="bevel"/>
<path d="M274.271 16.35L273.051 1" stroke="#D1D3D4" stroke-width="0.5" stroke-miterlimit="10" stroke-linejoin="bevel"/>
<path d="M276.73 16.35L275.49 1" stroke="#D1D3D4" stroke-width="0.5" stroke-miterlimit="10" stroke-linejoin="bevel"/>
<path d="M279.192 16.35L277.932 1" stroke="#D1D3D4" stroke-width="0.5" stroke-miterlimit="10" stroke-linejoin="bevel"/>
<path d="M281.651 16.35L280.371 1" stroke="#D1D3D4" stroke-width="0.5" stroke-miterlimit="10" stroke-linejoin="bevel"/>
<path d="M284.111 16.35L282.811 1" stroke="#D1D3D4" stroke-width="0.5" stroke-miterlimit="10" stroke-linejoin="bevel"/>
<path d="M286.57 16.35L285.25 1" stroke="#D1D3D4" stroke-width="0.5" stroke-miterlimit="10" stroke-linejoin="bevel"/>
<path d="M289.031 16.35L287.691 1" stroke="#D1D3D4" stroke-width="0.5" stroke-miterlimit="10" stroke-linejoin="bevel"/>
<path d="M291.491 16.35L290.131 1" stroke="#D1D3D4" stroke-width="0.5" stroke-miterlimit="10" stroke-linejoin="bevel"/>
<path d="M293.96 16.35L292.57 1" stroke="#D1D3D4" stroke-width="0.5" stroke-miterlimit="10" stroke-linejoin="bevel"/>
<path d="M296.422 16.35L295.012 1" stroke="#D1D3D4" stroke-width="0.5" stroke-miterlimit="10" stroke-linejoin="bevel"/>
<path d="M298.881 16.35L297.451 1" stroke="#D1D3D4" stroke-width="0.5" stroke-miterlimit="10" stroke-linejoin="bevel"/>
<path d="M301.341 16.35L299.891 1" stroke="#D1D3D4" stroke-width="0.5" stroke-miterlimit="10" stroke-linejoin="bevel"/>
<path d="M303.8 16.35L302.33 1" stroke="#D1D3D4" stroke-width="0.5" stroke-miterlimit="10" stroke-linejoin="bevel"/>
<path d="M306.261 16.35L304.771 1" stroke="#D1D3D4" stroke-width="0.5" stroke-miterlimit="10" stroke-linejoin="bevel"/>
<path d="M308.721 16.35L307.211 1" stroke="#D1D3D4" stroke-width="0.5" stroke-miterlimit="10" stroke-linejoin="bevel"/>
<path d="M311.18 16.35L309.65 1" stroke="#D1D3D4" stroke-width="0.5" stroke-miterlimit="10" stroke-linejoin="bevel"/>
<path d="M313.642 16.35L312.092 1" stroke="#D1D3D4" stroke-width="0.5" stroke-miterlimit="10" stroke-linejoin="bevel"/>
<path d="M316.111 16.35L314.531 1" stroke="#D1D3D4" stroke-width="0.5" stroke-miterlimit="10" stroke-linejoin="bevel"/>
<path d="M318.571 16.35L316.961 1" stroke="#D1D3D4" stroke-width="0.5" stroke-miterlimit="10" stroke-linejoin="bevel"/>
<path d="M321.03 16.35L319.4 1" stroke="#D1D3D4" stroke-width="0.5" stroke-miterlimit="10" stroke-linejoin="bevel"/>
<path d="M323.492 16.35L321.842 1" stroke="#D1D3D4" stroke-width="0.5" stroke-miterlimit="10" stroke-linejoin="bevel"/>
<path d="M325.951 16.35L324.281 1" stroke="#D1D3D4" stroke-width="0.5" stroke-miterlimit="10" stroke-linejoin="bevel"/>
<path d="M328.411 16.35L326.721 1" stroke="#D1D3D4" stroke-width="0.5" stroke-miterlimit="10" stroke-linejoin="bevel"/>
<path d="M330.87 16.35L329.16 1" stroke="#D1D3D4" stroke-width="0.5" stroke-miterlimit="10" stroke-linejoin="bevel"/>
<path d="M333.332 16.35L331.602 1" stroke="#D1D3D4" stroke-width="0.5" stroke-miterlimit="10" stroke-linejoin="bevel"/>
<path d="M335.791 16.35L334.041 1" stroke="#D1D3D4" stroke-width="0.5" stroke-miterlimit="10" stroke-linejoin="bevel"/>
<path d="M338.26 16.35L336.48 1" stroke="#D1D3D4" stroke-width="0.5" stroke-miterlimit="10" stroke-linejoin="bevel"/>
<path d="M340.72 16.35L338.92 1" stroke="#D1D3D4" stroke-width="0.5" stroke-miterlimit="10" stroke-linejoin="bevel"/>
<path d="M343.181 16.35L341.361 1" stroke="#D1D3D4" stroke-width="0.5" stroke-miterlimit="10" stroke-linejoin="bevel"/>
<path d="M345.641 16.35L343.801 1" stroke="#D1D3D4" stroke-width="0.5" stroke-miterlimit="10" stroke-linejoin="bevel"/>
<path d="M348.1 16.35L346.24 1" stroke="#D1D3D4" stroke-width="0.5" stroke-miterlimit="10" stroke-linejoin="bevel"/>
<path d="M350.562 16.35L348.682 1" stroke="#D1D3D4" stroke-width="0.5" stroke-miterlimit="10" stroke-linejoin="bevel"/>
<path d="M353.021 16.35L351.121 1" stroke="#D1D3D4" stroke-width="0.5" stroke-miterlimit="10" stroke-linejoin="bevel"/>
<path d="M355.481 16.35L353.561 1" stroke="#D1D3D4" stroke-width="0.5" stroke-miterlimit="10" stroke-linejoin="bevel"/>
<path d="M357.94 16.35L356 1" stroke="#D1D3D4" stroke-width="0.5" stroke-miterlimit="10" stroke-linejoin="bevel"/>
<path d="M360.411 16.35L358.441 1" stroke="#D1D3D4" stroke-width="0.5" stroke-miterlimit="10" stroke-linejoin="bevel"/>
<path d="M362.871 16.35L360.881 1" stroke="#D1D3D4" stroke-width="0.5" stroke-miterlimit="10" stroke-linejoin="bevel"/>
<path d="M365.33 16.35L363.32 1" stroke="#D1D3D4" stroke-width="0.5" stroke-miterlimit="10" stroke-linejoin="bevel"/>
<path d="M367.792 16.35L365.762 1" stroke="#D1D3D4" stroke-width="0.5" stroke-miterlimit="10" stroke-linejoin="bevel"/>
<path d="M370.251 16.35L368.201 1" stroke="#D1D3D4" stroke-width="0.5" stroke-miterlimit="10" stroke-linejoin="bevel"/>
<path d="M372.711 16.35L370.641 1" stroke="#D1D3D4" stroke-width="0.5" stroke-miterlimit="10" stroke-linejoin="bevel"/>
<path d="M375.17 16.35L373.08 1" stroke="#D1D3D4" stroke-width="0.5" stroke-miterlimit="10" stroke-linejoin="bevel"/>
<path d="M377.631 16.35L375.521 1" stroke="#D1D3D4" stroke-width="0.5" stroke-miterlimit="10" stroke-linejoin="bevel"/>
<path d="M380.101 16.35L377.961 1" stroke="#D1D3D4" stroke-width="0.5" stroke-miterlimit="10" stroke-linejoin="bevel"/>
<path d="M382.56 16.35L380.4 1" stroke="#D1D3D4" stroke-width="0.5" stroke-miterlimit="10" stroke-linejoin="bevel"/>
<path d="M385.022 16.35L382.842 1" stroke="#D1D3D4" stroke-width="0.5" stroke-miterlimit="10" stroke-linejoin="bevel"/>
<path d="M387.481 16.35L385.281 1" stroke="#D1D3D4" stroke-width="0.5" stroke-miterlimit="10" stroke-linejoin="bevel"/>
<path d="M389.941 16.35L387.721 1" stroke="#D1D3D4" stroke-width="0.5" stroke-miterlimit="10" stroke-linejoin="bevel"/>
<path d="M392.4 16.35L390.16 1" stroke="#D1D3D4" stroke-width="0.5" stroke-miterlimit="10" stroke-linejoin="bevel"/>
<path d="M394.862 16.35L392.602 1" stroke="#D1D3D4" stroke-width="0.5" stroke-miterlimit="10" stroke-linejoin="bevel"/>
<path d="M397.321 16.35L395.041 1" stroke="#D1D3D4" stroke-width="0.5" stroke-miterlimit="10" stroke-linejoin="bevel"/>
<path d="M399.781 16.35L397.48 1" stroke="#D1D3D4" stroke-width="0.5" stroke-miterlimit="10" stroke-linejoin="bevel"/>
<path d="M402.25 16.35L399.92 1" stroke="#D1D3D4" stroke-width="0.5" stroke-miterlimit="10" stroke-linejoin="bevel"/>
<path d="M404.711 16.35L402.361 1" stroke="#D1D3D4" stroke-width="0.5" stroke-miterlimit="10" stroke-linejoin="bevel"/>
<path d="M407.171 16.35L404.801 1" stroke="#D1D3D4" stroke-width="0.5" stroke-miterlimit="10" stroke-linejoin="bevel"/>
<path d="M409.63 16.35L407.24 1" stroke="#D1D3D4" stroke-width="0.5" stroke-miterlimit="10" stroke-linejoin="bevel"/>
<path d="M412.092 16.35L409.682 1" stroke="#D1D3D4" stroke-width="0.5" stroke-miterlimit="10" stroke-linejoin="bevel"/>
<path d="M414.551 16.35L412.121 1" stroke="#D1D3D4" stroke-width="0.5" stroke-miterlimit="10" stroke-linejoin="bevel"/>
<path d="M417.011 16.35L414.561 1" stroke="#D1D3D4" stroke-width="0.5" stroke-miterlimit="10" stroke-linejoin="bevel"/>
<path d="M419.47 16.35L417 1" stroke="#D1D3D4" stroke-width="0.5" stroke-miterlimit="10" stroke-linejoin="bevel"/>
<path d="M421.931 16.35L419.441 1" stroke="#D1D3D4" stroke-width="0.5" stroke-miterlimit="10" stroke-linejoin="bevel"/>
<path d="M424.401 16.35L421.881 1" stroke="#D1D3D4" stroke-width="0.5" stroke-miterlimit="10" stroke-linejoin="bevel"/>
<path d="M426.86 16.35L424.32 1" stroke="#D1D3D4" stroke-width="0.5" stroke-miterlimit="10" stroke-linejoin="bevel"/>
<path d="M429.322 16.35L426.762 1" stroke="#D1D3D4" stroke-width="0.5" stroke-miterlimit="10" stroke-linejoin="bevel"/>
<path d="M431.781 16.35L429.201 1" stroke="#D1D3D4" stroke-width="0.5" stroke-miterlimit="10" stroke-linejoin="bevel"/>
<path d="M434.241 16.35L431.641 1" stroke="#D1D3D4" stroke-width="0.5" stroke-miterlimit="10" stroke-linejoin="bevel"/>
<path d="M436.7 16.35L434.08 1" stroke="#D1D3D4" stroke-width="0.5" stroke-miterlimit="10" stroke-linejoin="bevel"/>
<path d="M439.161 16.35L436.521 1" stroke="#D1D3D4" stroke-width="0.5" stroke-miterlimit="10" stroke-linejoin="bevel"/>
<path d="M441.621 16.35L438.961 1" stroke="#D1D3D4" stroke-width="0.5" stroke-miterlimit="10" stroke-linejoin="bevel"/>
<path d="M444.08 16.35L441.4 1" stroke="#D1D3D4" stroke-width="0.5" stroke-miterlimit="10" stroke-linejoin="bevel"/>
<path d="M446.552 16.35L443.842 1" stroke="#D1D3D4" stroke-width="0.5" stroke-miterlimit="10" stroke-linejoin="bevel"/>
<path d="M449.011 16.35L446.281 1" stroke="#D1D3D4" stroke-width="0.5" stroke-miterlimit="10" stroke-linejoin="bevel"/>
<path d="M451.471 16.35L448.721 1" stroke="#D1D3D4" stroke-width="0.5" stroke-miterlimit="10" stroke-linejoin="bevel"/>
<path d="M453.93 16.35L451.16 1" stroke="#D1D3D4" stroke-width="0.5" stroke-miterlimit="10" stroke-linejoin="bevel"/>
<path d="M456.392 16.35L453.602 1" stroke="#D1D3D4" stroke-width="0.5" stroke-miterlimit="10" stroke-linejoin="bevel"/>
<path d="M458.851 16.35L456.041 1" stroke="#D1D3D4" stroke-width="0.5" stroke-miterlimit="10" stroke-linejoin="bevel"/>
<path d="M461.31 16.35L458.48 1" stroke="#D1D3D4" stroke-width="0.5" stroke-miterlimit="10" stroke-linejoin="bevel"/>
<path d="M463.77 16.35L460.92 1" stroke="#D1D3D4" stroke-width="0.5" stroke-miterlimit="10" stroke-linejoin="bevel"/>
<path d="M466.241 16.35L463.361 1" stroke="#D1D3D4" stroke-width="0.5" stroke-miterlimit="10" stroke-linejoin="bevel"/>
<path d="M468.701 16.35L465.801 1" stroke="#D1D3D4" stroke-width="0.5" stroke-miterlimit="10" stroke-linejoin="bevel"/>
<path d="M471.16 16.35L468.24 1" stroke="#D1D3D4" stroke-width="0.5" stroke-miterlimit="10" stroke-linejoin="bevel"/>
<path d="M473.622 16.35L470.682 1" stroke="#D1D3D4" stroke-width="0.5" stroke-miterlimit="10" stroke-linejoin="bevel"/>
<path d="M476.081 16.35L473.121 1" stroke="#D1D3D4" stroke-width="0.5" stroke-miterlimit="10" stroke-linejoin="bevel"/>
<path d="M478.541 16.35L475.551 1" stroke="#D1D3D4" stroke-width="0.5" stroke-miterlimit="10" stroke-linejoin="bevel"/>
<path d="M481 16.35L477.99 1" stroke="#D1D3D4" stroke-width="0.5" stroke-miterlimit="10" stroke-linejoin="bevel"/>
<path d="M483.462 16.35L480.432 1" stroke="#D1D3D4" stroke-width="0.5" stroke-miterlimit="10" stroke-linejoin="bevel"/>
<path d="M485.921 16.35L482.871 1" stroke="#D1D3D4" stroke-width="0.5" stroke-miterlimit="10" stroke-linejoin="bevel"/>
<path d="M488.391 16.35L485.311 1" stroke="#D1D3D4" stroke-width="0.5" stroke-miterlimit="10" stroke-linejoin="bevel"/>
<path d="M490.85 16.35L487.75 1" stroke="#D1D3D4" stroke-width="0.5" stroke-miterlimit="10" stroke-linejoin="bevel"/>
<path d="M493.311 16.35L490.191 1" stroke="#D1D3D4" stroke-width="0.5" stroke-miterlimit="10" stroke-linejoin="bevel"/>
<path d="M495.771 16.35L492.631 1" stroke="#D1D3D4" stroke-width="0.5" stroke-miterlimit="10" stroke-linejoin="bevel"/>
<path d="M498.23 16.35L495.07 1" stroke="#D1D3D4" stroke-width="0.5" stroke-miterlimit="10" stroke-linejoin="bevel"/>
<path d="M500.692 16.35L497.512 1" stroke="#D1D3D4" stroke-width="0.5" stroke-miterlimit="10" stroke-linejoin="bevel"/>
<path d="M503.151 16.35L499.951 1" stroke="#D1D3D4" stroke-width="0.5" stroke-miterlimit="10" stroke-linejoin="bevel"/>
<path d="M505.611 16.35L502.391 1" stroke="#D1D3D4" stroke-width="0.5" stroke-miterlimit="10" stroke-linejoin="bevel"/>
<path d="M508.07 16.35L504.83 1" stroke="#D1D3D4" stroke-width="0.5" stroke-miterlimit="10" stroke-linejoin="bevel"/>
</svg>
